<mxfile host="app.diagrams.net" modified="2023-10-24T08:37:29.261Z" agent="Mozilla/5.0 (Macintosh; Intel Mac OS X 10_15_7) AppleWebKit/537.36 (KHTML, like Gecko) Chrome/117.0.0.0 Safari/537.36" etag="uCg3Ufq6aXS2nSH8CH-G" version="22.0.5" type="github">
  <diagram name="第 1 页" id="sB8srjuVeLLHSBnetMFK">
    <mxGraphModel dx="735" dy="422" grid="1" gridSize="10" guides="1" tooltips="1" connect="1" arrows="1" fold="1" page="1" pageScale="1" pageWidth="1169" pageHeight="827" math="1" shadow="0">
      <root>
        <mxCell id="0" />
        <mxCell id="1" parent="0" />
        <mxCell id="NjEH-Y5bsBaPho56bhVg-44" value="" style="rounded=0;whiteSpace=wrap;html=1;fontFamily=Times New Roman;fontStyle=0;fillColor=#f5f5f5;fontColor=#333333;strokeColor=#666666;" vertex="1" parent="1">
          <mxGeometry x="360" y="40" width="272" height="260" as="geometry" />
        </mxCell>
        <mxCell id="NjEH-Y5bsBaPho56bhVg-134" value="" style="rounded=0;whiteSpace=wrap;html=1;fontFamily=Times New Roman;fontStyle=0;fillColor=#ffe6cc;strokeColor=#d79b00;" vertex="1" parent="1">
          <mxGeometry x="130" y="170" width="190" height="130" as="geometry" />
        </mxCell>
        <mxCell id="NjEH-Y5bsBaPho56bhVg-103" value="$$\boldsymbol{x}^*$$" style="text;html=1;align=center;verticalAlign=middle;resizable=0;points=[];autosize=1;strokeColor=none;fillColor=none;fontFamily=Times New Roman;fontStyle=0;fontColor=#FF0000;" vertex="1" parent="1">
          <mxGeometry x="240" y="216" width="140" height="30" as="geometry" />
        </mxCell>
        <mxCell id="NjEH-Y5bsBaPho56bhVg-98" value="$$\boldsymbol{h}_{atk}$$" style="text;html=1;align=center;verticalAlign=middle;resizable=0;points=[];autosize=1;strokeColor=none;fillColor=none;fontFamily=Times New Roman;fontStyle=0;fontColor=#FF0000;" vertex="1" parent="1">
          <mxGeometry x="261" y="193.25" width="160" height="30" as="geometry" />
        </mxCell>
        <mxCell id="NjEH-Y5bsBaPho56bhVg-104" value="$$\boldsymbol{r}$$" style="text;html=1;align=center;verticalAlign=middle;resizable=0;points=[];autosize=1;strokeColor=none;fillColor=none;fontFamily=Times New Roman;fontStyle=0" vertex="1" parent="1">
          <mxGeometry x="375" y="108.75" width="120" height="30" as="geometry" />
        </mxCell>
        <mxCell id="NjEH-Y5bsBaPho56bhVg-132" value="" style="shape=image;verticalLabelPosition=bottom;labelBackgroundColor=default;verticalAlign=top;aspect=fixed;imageAspect=0;image=data:image/svg+xml,PHN2ZyB4bWxuczp4bGluaz0iaHR0cDovL3d3dy53My5vcmcvMTk5OS94bGluayIgeG1sbnM9Imh0dHA6Ly93d3cudzMub3JnLzIwMDAvc3ZnIiBoZWlnaHQ9IjIwMCIgd2lkdGg9IjIwMCIgdmVyc2lvbj0iMS4xIiB2aWV3Qm94PSIwIDAgMTAyNCAxMDI0IiBjbGFzcz0iaWNvbiI+PHBhdGggZmlsbD0iIzJjMmMyYyIgZD0iTTEwMDYuODM0MTkgODg3LjQ3MDg1NGgtNTEuMTk4NDI5di01MS4xOTg0M2ExNy4wNjYxNDMgMTcuMDY2MTQzIDAgMCAwLTE3LjA2NjE0NC0xNy4wNjYxNDRoLTg1LjMzMDcxNnYtMjU1Ljk5MjE0OWExNy4wNjYxNDMgMTcuMDY2MTQzIDAgMCAwLTE3LjA2NjE0NC0xNy4wNjYxNDRoLTE4Ny43Mjc1NzZ2LTE0Ni41Mjk5MDZsMjkuMTQ4OTczLTI5LjE0ODk3M2MwLjQ0MzcyLTAuNDQzNzIgMC42MTQzODEtMS4wMjM5NjkgMC45ODk4MzYtMS40Njc2ODggNzUuMzY0MDg5IDcwLjQ0OTA0IDE2My41NjE5MTcgMTA5LjM1OTg0NiAyMzYuNDM0MzQ5IDEwOS4zNTk4NDYgNDEuNDAyNDY0IDAgNzcuNzg3NDgxLTEyLjQ1ODI4NSAxMDMuODk4NjgxLTM4LjU2OTQ4NGExNy4wNjYxNDMgMTcuMDY2MTQzIDAgMCAwIDAtMjQuMTMxNTI2TDgyNS42NjAwMTMgMjIyLjQwMzI0OWw1Ni43Mjc4Ni01Ni43Mjc4NiAwLjEwMjM5Ny0wLjEzNjUzYzYuNjU1Nzk2IDMuMjA4NDM1IDE0LjA2MjUwMiA1LjE1Mzk3NSAyMS45NDcwNjEgNS4xNTM5NzYgMjguMjI3NDAxIDAgNTEuMTk4NDMtMjIuOTcxMDI5IDUxLjE5ODQzLTUxLjE5ODQzcy0yMi45NzEwMjktNTEuMTk4NDMtNTEuMTk4NDMtNTEuMTk4NDMtNTEuMTk4NDMgMjIuOTcxMDI5LTUxLjE5ODQzIDUxLjE5ODQzYzAgNy44ODQ1NTggMS45NDU1NCAxNS4yOTEyNjQgNS4xNTM5NzUgMjEuOTgxMTkybC0wLjEzNjUyOSAwLjEwMjM5Ny01Ni43Mjc4NjEgNTYuNzI3ODYxTDYwOC4yNzE0OCA1LjA0ODg0OGExNy4wNjYxNDMgMTcuMDY2MTQzIDAgMCAwLTI0LjEzMTUyNyAwYy03Mi4wODczODkgNzIuMDg3Mzg5LTM5LjgzMjM3OCAyMjIuMjM1MzE4IDcwLjY1MzgzMyAzNDAuNDM1NDI2LTAuNDQzNzIgMC4zNDEzMjMtMC45NTU3MDQgMC41MTE5ODQtMS4zNjUyOTEgMC44ODc0NGwtMzQuMTMyMjg3IDM0LjEzMjI4N2ExNy4wNjYxNDMgMTcuMDY2MTQzIDAgMCAwLTQuOTgzMzE0IDEyLjA0ODY5N1Y1NDYuMTQ3OTg3aC0xODcuNzI3NTc2YTE3LjA2NjE0MyAxNy4wNjYxNDMgMCAwIDAtMTcuMDY2MTQzIDE3LjA2NjE0NFY4MTkuMjA2MjhoLTEwMi4zOTY4NlYyMjEuODkxMjY1YTE3LjIwMjY3MiAxNy4yMDI2NzIgMCAwIDAtNC45ODMzMTQtMTIuMDgyODNsLTIwNC43OTM3Mi0yMDQuNzkzNzE5YTE3LjA2NjE0MyAxNy4wNjYxNDMgMCAwIDAtMjQuMTMxNTI2IDI0LjEzMTUyNmwxOTkuODEwNDA2IDE5OS44MTA0MDZWODE5LjIwNjI4aC02OC4yNjQ1NzRWNDYwLjgxNzI3MWExNy4yMDI2NzIgMTcuMjAyNjcyIDAgMCAwLTQuOTgzMzEzLTEyLjA4MjgzbC0xMDIuMzk2ODYtMTAyLjM5Njg1OWExNy4wNjYxNDMgMTcuMDY2MTQzIDAgMCAwLTI0LjEzMTUyNyAyNC4xMzE1MjZMMTcwLjY2MTQzMyA0NjcuODgyNjU0VjgxOS4yMDYyOEg4NS4zMzA3MTdhMTcuMDY2MTQzIDE3LjA2NjE0MyAwIDAgMC0xNy4wNjYxNDQgMTcuMDY2MTQ0Vjg4Ny40NzA4NTRIMTcuMDY2MTQzYTE3LjA2NjE0MyAxNy4wNjYxNDMgMCAwIDAtMTcuMDY2MTQzIDE3LjA2NjE0M3YxMDIuMzk2ODZhMTcuMDY2MTQzIDE3LjA2NjE0MyAwIDAgMCAxNy4wNjYxNDMgMTcuMDY2MTQzaDk4OS44MzYzMTJhMTcuMDY2MTQzIDE3LjA2NjE0MyAwIDAgMCAxNy4wNjYxNDMtMTcuMDY2MTQzdi0xMDIuMzk2ODZhMTcuMTY4NTQgMTcuMTY4NTQgMCAwIDAtMTcuMTM0NDA4LTE3LjA2NjE0M3ogbS00NjAuNzg1ODY5LTE1My41OTUyOWExNy4wNjYxNDMgMTcuMDY2MTQzIDAgMCAxLTM0LjEzMjI4NiAwdi02OC4yNjQ1NzNhMTcuMDY2MTQzIDE3LjA2NjE0MyAwIDAgMSAzNC4xMzIyODYgMHY2OC4yNjQ1NzN6IG0xMDIuMzk2ODYgMGExNy4wNjYxNDMgMTcuMDY2MTQzIDAgMCAxLTM0LjEzMjI4NyAwdi02OC4yNjQ1NzNhMTcuMDY2MTQzIDE3LjA2NjE0MyAwIDAgMSAzNC4xMzIyODcgMHY2OC4yNjQ1NzN6IG0xMDIuMzk2ODYgMGExNy4wNjYxNDMgMTcuMDY2MTQzIDAgMCAxLTM0LjEzMjI4NyAwdi02OC4yNjQ1NzNhMTcuMDY2MTQzIDE3LjA2NjE0MyAwIDAgMSAzNC4xMzIyODcgMHY2OC4yNjQ1NzN6Ii8+PC9zdmc+;fontFamily=Times New Roman;" vertex="1" parent="1">
          <mxGeometry x="372" y="118.75" width="50" height="50" as="geometry" />
        </mxCell>
        <mxCell id="NjEH-Y5bsBaPho56bhVg-110" value="" style="rounded=1;whiteSpace=wrap;html=1;fontFamily=Times New Roman;fontStyle=0" vertex="1" parent="1">
          <mxGeometry x="456" y="188.75" width="156" height="101.25" as="geometry" />
        </mxCell>
        <mxCell id="NjEH-Y5bsBaPho56bhVg-105" value="$$\boldsymbol{r}^*$$" style="text;html=1;align=center;verticalAlign=middle;resizable=0;points=[];autosize=1;strokeColor=none;fillColor=none;fontFamily=Times New Roman;fontStyle=0;fontColor=#FF0000;" vertex="1" parent="1">
          <mxGeometry x="373" y="134.25" width="130" height="30" as="geometry" />
        </mxCell>
        <mxCell id="NjEH-Y5bsBaPho56bhVg-47" value="" style="rounded=0;whiteSpace=wrap;html=1;fontFamily=Times New Roman;fontStyle=0;fillColor=#f5f5f5;fontColor=#333333;strokeColor=#666666;" vertex="1" parent="1">
          <mxGeometry x="130" y="40" width="190" height="120" as="geometry" />
        </mxCell>
        <mxCell id="NjEH-Y5bsBaPho56bhVg-1" value="" style="shape=image;verticalLabelPosition=bottom;labelBackgroundColor=default;verticalAlign=top;aspect=fixed;imageAspect=0;image=data:image/svg+xml,PHN2ZyB4bWxuczp4bGluaz0iaHR0cDovL3d3dy53My5vcmcvMTk5OS94bGluayIgeG1sbnM9Imh0dHA6Ly93d3cudzMub3JnLzIwMDAvc3ZnIiBoZWlnaHQ9IjIwMCIgd2lkdGg9IjIwMCIgdmVyc2lvbj0iMS4xIiB2aWV3Qm94PSIwIDAgMTAyNCAxMDI0IiBjbGFzcz0iaWNvbiI+PHBhdGggZmlsbD0iI2Q4MWUwNiIgZD0iTTM0Ny41NDk5NTcgNTE5LjU2MDE3bC0xMTAuOTE4ODA4LTU5LjkxNDg5MyAxMTAuMTEyNjgxLTk2LjM0MzE0OWMxLjU0Njg5NCAxNy43NTY1OTYgMi4xNzg3MjMgMzMuNjgzMDY0IDQuNDY2MzgzIDQ5LjM5MTY1OWEzMDUuODkyNzY2IDMwNS44OTI3NjYgMCAwIDAgMzUuMDEyMDg1IDEwNy4yODAzNDEgMTM0LjI3NDcyMyAxMzQuMjc0NzIzIDAgMCAwIDIzNS44OTAzODMtMi40ODM3NDUgMzAwLjY2MzgzIDMwMC42NjM4MyAwIDAgMCAzMS45ODM2NTktMTQyLjcyODE3di0xMy41Mjk4NzNsMi42MTQ0NjktMS40NTk3NDQgMTE0LjM2MTE5MSA5OS43ODU1MzItMTExLjExNDg5NCA2MC4yNjM0ODljMjIuMTE0MDQzIDYuNTM2MTcgNDQuMDc1NTc0IDExLjc2NTEwNiA2NC44ODIzODMgMTkuODI2MzgzYTkxLjUwNjM4MyA5MS41MDYzODMgMCAwIDEgNTcuODg4NjgxIDUyLjI4OTM2MmMyMC44MDY4MDkgNTcuMzAwNDI2IDQwLjk2IDExNC44MTg3MjMgNjAuNDU5NTc1IDE3Mi41NzY2ODFhNjcuNTQwNDI2IDY3LjU0MDQyNiAwIDAgMS0yOS4zMDM4MyA3OC4zMDMzMTljLTQuNTc1MzE5IDIuNzY2OTc5LTkuNDU1NjYgNS4wNTQ2MzgtMTQuNDg4NTExIDYuODYyOTc4LTE5LjYwODUxMSA3LjMyMDUxMS0zOS4zNDc3NDUgMTQuNDAxMzYyLTYwLjU0NjcyMyAyMi4xMTQwNDNsMTYuNTE0NzIzLTIyNy44MDczMTlIMjUyLjIwOTAyMWwxNi43MTA4MDkgMjI5Ljc0NjM4M2MtMjYuODg1NDQ3LTEwLjQxNDI5OC01Mi42Mzc5NTctMTguMjU3NzAyLTc2LjM4NjA0My0zMC4xMDk5NThhNjYuMDE1MzE5IDY2LjAxNTMxOSAwIDAgMS0zMC4xMDk5NTctODMuMDc0NzIzIDUzMzguMzUxNjYgNTMzOC4zNTE2NiAwIDAgMSA1NC44Mzg0NjgtMTQ5LjgzMDgwOWM0Ljk0NTcwMi0xNC40ODg1MTEgMTIuMTM1NDg5LTI4LjEwNTUzMiAyMS4zMDc5MTUtNDAuMzQ5OTU3YTE0NS4wODExOTEgMTQ1LjA4MTE5MSAwIDAgMSA4NC45NzAyMTMtNDMuOTIzMDY0YzcuOTMwNTUzLTEuODczNzAyIDE1Ljk5MTgzLTMuMDkzNzg3IDIzLjk2NTk1Ny00LjU5NzEwNmwwLjA0MzU3NC0yLjI4NzY2eiIvPjxwYXRoIGZpbGw9IiNkODFlMDYiIGQ9Ik0yODAuMjI3NDA0IDY3NS41NTY3NjZoNDQ3LjE4Mjk3OWwtMTUuMDc2NzY2IDIyMi45MDUxOTFIMjk1LjUwMDI1NWMtNS4wOTgyMTMtNzMuNjg0NDI2LTEwLjEzMTA2NC0xNDcuNjA4NTExLTE1LjI3Mjg1MS0yMjIuOTA1MTkxek0yMTQuNTM4ODk0IDI2OS45NjU2MTdjMTQuNTUzODcyLTMuMDkzNzg3IDI4Ljk1NTIzNC03LjIzMzM2MiA0My41NzQ0NjgtOS4wODUyNzdhMTM5MC4zMzA1NTMgMTM5MC4zMzA1NTMgMCAwIDEgNzYuNzM0NjM4LTcuMTQ2MjEyYzYuNzU0MDQzIDAuMjE3ODcyIDEyLjg3NjI1NS0zLjkyMTcwMiAxNS4yNTEwNjQtMTAuMjRhNzA0LjIwNjk3OSA3MDQuMjA2OTc5IDAgMCAxIDcwLjUwMzQ4OS0xMjAuOTQwOTM3YzIuODEwNTUzLTMuNzAzODMgNS45NDc5MTUtNy4xMjQ0MjYgOC43MTQ4OTQtMTAuODkzNjE3IDIxLjExMTgzLTI2Ljk3MjU5NiA0Ni40Mjg1OTYtMjYuMjc1NDA0IDc3LjMwMTEwNi0xMC4yNjE3ODcgMi45ODQ4NTEgMS4yNjM2NiA2LjMxODI5OCAxLjQzNzk1NyA5LjQxMjA4NSAwLjQ3OTMxOSA5LjU0MjgwOS0yLjg5NzcwMiAxOC45NTQ4OTQtNi4yNTI5MzYgMjguMzIzNDA1LTkuODI2MDQyYTE1LjI1MTA2NCAxNS4yNTEwNjQgMCAwIDEgMjEuMDQ2NDY4IDguNzE0ODkzYzE0LjMzNiAyNi4zMTg5NzkgMjkuMDIwNTk2IDUyLjQ0MTg3MiA0Mi45NjQ0MjUgNzguOTc4NzI0IDExLjEzMzI3NyAyMS4xNTU0MDQgMjEuNjM0NzIzIDQyLjY1OTQwNCAzMS44NTI5MzYgNjQuMjcyMzQgMi4xMzUxNDkgNS42NjQ2ODEgNy41NjAxNyA5LjQxMjA4NSAxMy42MTcwMjIgOS4zNjg1MTEgMzMuNzA0ODUxIDMuMjg5ODcyIDY3LjM2NjEyOCA3LjE2OCAxMDAuOTgzODI5IDExLjM3MjkzNiA3Ljg0MzQwNCAxLjMwNzIzNCAxNS4zMTY0MjYgNC4zNTc0NDcgMjEuNzg3MjM0IDguOTk4MTI4YTkxLjUwNjM4MyA5MS41MDYzODMgMCAwIDEtMTQuNTUzODcyIDcuMzQyMjk4Yy00OC4xMDYyMTMgMTQuNTc1NjYtOTUuOTk0NTUzIDMwLjA0NDU5Ni0xNDQuNjAxODcyIDQyLjgxMTkxNS0zNS4xMjEwMjEgOS4yMzc3ODctNzEuMDY5OTU3IDE1LjU1NjA4NS0xMDYuOTA5OTU4IDIxLjc4NzIzNGEyMTUuMjc5NjYgMjE1LjI3OTY2IDAgMCAxLTgxLjQ4NDI1NS04LjcxNDg5NCAxNDE2LjQzMTY2IDE0MTYuNDMxNjYgMCAwIDEtMTk4Ljg1MjA4NS01NS4zMzk1NzVjLTUuNTEyMTctMi4wNDgtMTAuNjUzOTU3LTUuMDMyODUxLTE1Ljk3MDA0My03LjYwMzc0NGwwLjMwNTAyMi00LjA3NDIxM3pNNDg3Ljc1MDgwOSAzODQuODI3OTE1aDI4LjU4NDg1MWEzNi44ODU3ODcgMzYuODg1Nzg3IDAgMCAxIDM3LjAzODI5Ny0zMi4xMTQzODMgMjI3LjkzODA0MyAyMjcuOTM4MDQzIDAgMCAxIDM3LjI1NjE3MS0yLjY1ODA0MyA1NC40NjgwODUgNTQuNDY4MDg1IDAgMCAxIDUxLjUyNjgwOCA1Ni4yNTQ2MzkgNTMuNTMxMjM0IDUzLjUzMTIzNCAwIDAgMS01NS41NzkyMzQgNTMuMDUxOTE1IDYzLjk0NTUzMiA2My45NDU1MzIgMCAwIDEtMjguNDk3NzAyLTEwLjQzNjA4NiA5MS41MDYzODMgOTEuNTA2MzgzIDAgMCAxLTM2LjE4ODU5Ni00My45NjY2MzhjLTMuOTg3MDY0LTkuOTc4NTUzLTEyLjI4OC05LjkzNDk3OS0yMC4zNzEwNjQtMTAuMDAwMzQtOC4wODMwNjQtMC4wNjUzNjItMTUuMjUxMDY0IDAuNjc1NDA0LTE5LjA4NTYxNyAxMC4xNzQ2MzhhOTYuNjI2MzgzIDk2LjYyNjM4MyAwIDAgMS0zNy4wMzgyOTcgNDQuNzI5MTkyIDUxLjY3OTMxOSA1MS42NzkzMTkgMCAwIDEtNzYuMjU1MzItMTguMTA1MTkyIDU0LjgzODQ2OCA1NC44Mzg0NjggMCAwIDEgMjUuMTg2MDQzLTc2LjkzMDcyMyA5OC42NzQzODMgOTguNjc0MzgzIDAgMCAxIDY4LjE3MjI1NSAwLjg0OTcwMmMxNi4wMzU0MDQgNC42NjI0NjggMjEuMTU1NDA0IDExLjMyOTM2MiAyNS4yNTE0MDUgMjkuMTUxMzE5ek03MDkuMDIxOTU3IDkxNS4wMjAyNTVjMC4yMzk2NiAxNS41NTYwODUtMi4yODc2NiAxOC42NzE2Ni0xNS4xMjAzNCAxOC42NzE2NkgzMTQuMTA2NTUzYy0xMy4wNzIzNCAwLTE1LjI1MTA2NC0yLjQ0MDE3LTE1LjkwNDY4MS0xOC42MDYyOThsNDEwLjgyMDA4NS0wLjA2NTM2MnoiLz48L3N2Zz4=;fontFamily=Times New Roman;fontStyle=0" vertex="1" parent="1">
          <mxGeometry x="255" y="209.38" width="60" height="60" as="geometry" />
        </mxCell>
        <mxCell id="NjEH-Y5bsBaPho56bhVg-81" style="rounded=0;orthogonalLoop=1;jettySize=auto;html=1;exitX=1;exitY=0.25;exitDx=0;exitDy=0;dashed=1;endArrow=blockThin;endFill=1;strokeColor=#FF0000;fontStyle=0;fontFamily=Times New Roman;entryX=0;entryY=0.5;entryDx=0;entryDy=0;" edge="1" parent="1" source="NjEH-Y5bsBaPho56bhVg-1" target="NjEH-Y5bsBaPho56bhVg-132">
          <mxGeometry relative="1" as="geometry">
            <mxPoint x="350" y="150" as="targetPoint" />
          </mxGeometry>
        </mxCell>
        <mxCell id="NjEH-Y5bsBaPho56bhVg-43" value="&lt;span style=&quot;&quot;&gt;$$f(\boldsymbol{\theta};\cdot)$$&lt;/span&gt;" style="text;html=1;align=center;verticalAlign=middle;resizable=0;points=[];autosize=1;strokeColor=none;fillColor=none;fontFamily=Times New Roman;fontStyle=0" vertex="1" parent="1">
          <mxGeometry x="401" y="234.38" width="190" height="30" as="geometry" />
        </mxCell>
        <mxCell id="NjEH-Y5bsBaPho56bhVg-46" value="$$\boldsymbol{h}_{nor}$$" style="text;html=1;align=center;verticalAlign=middle;resizable=0;points=[];autosize=1;strokeColor=none;fillColor=none;fontFamily=Times New Roman;fontStyle=0" vertex="1" parent="1">
          <mxGeometry x="261" y="88.75" width="160" height="30" as="geometry" />
        </mxCell>
        <mxCell id="NjEH-Y5bsBaPho56bhVg-91" value="" style="edgeStyle=orthogonalEdgeStyle;rounded=0;orthogonalLoop=1;jettySize=auto;html=1;startArrow=classicThin;startFill=1;endArrow=none;endFill=0;fontStyle=0;fontFamily=Times New Roman;" edge="1" parent="1" source="NjEH-Y5bsBaPho56bhVg-49" target="NjEH-Y5bsBaPho56bhVg-89">
          <mxGeometry relative="1" as="geometry" />
        </mxCell>
        <mxCell id="NjEH-Y5bsBaPho56bhVg-93" style="edgeStyle=orthogonalEdgeStyle;rounded=0;orthogonalLoop=1;jettySize=auto;html=1;exitX=1;exitY=0.5;exitDx=0;exitDy=0;entryX=0;entryY=0.5;entryDx=0;entryDy=0;endArrow=classicThin;endFill=1;fontStyle=0;fontFamily=Times New Roman;" edge="1" parent="1" source="NjEH-Y5bsBaPho56bhVg-49">
          <mxGeometry relative="1" as="geometry">
            <mxPoint x="260" y="83.75" as="targetPoint" />
          </mxGeometry>
        </mxCell>
        <mxCell id="NjEH-Y5bsBaPho56bhVg-49" value="Modulator" style="rounded=1;whiteSpace=wrap;html=1;fontFamily=Times New Roman;fontStyle=0" vertex="1" parent="1">
          <mxGeometry x="150" y="68.75" width="90" height="30" as="geometry" />
        </mxCell>
        <mxCell id="NjEH-Y5bsBaPho56bhVg-114" value="" style="edgeStyle=orthogonalEdgeStyle;rounded=0;orthogonalLoop=1;jettySize=auto;html=1;endArrow=classicThin;endFill=1;fontStyle=0;fontFamily=Times New Roman;" edge="1" parent="1" source="NjEH-Y5bsBaPho56bhVg-51" target="NjEH-Y5bsBaPho56bhVg-113">
          <mxGeometry relative="1" as="geometry" />
        </mxCell>
        <mxCell id="NjEH-Y5bsBaPho56bhVg-51" value="Demodulator" style="rounded=1;whiteSpace=wrap;html=1;fontFamily=Times New Roman;fontStyle=0" vertex="1" parent="1">
          <mxGeometry x="455" y="68.75" width="90" height="30" as="geometry" />
        </mxCell>
        <mxCell id="NjEH-Y5bsBaPho56bhVg-57" value="" style="group;fontFamily=Times New Roman;fontStyle=0" vertex="1" connectable="0" parent="1">
          <mxGeometry x="532" y="194.38" width="70" height="90" as="geometry" />
        </mxCell>
        <mxCell id="NjEH-Y5bsBaPho56bhVg-5" value="" style="ellipse;whiteSpace=wrap;html=1;aspect=fixed;fontFamily=Times New Roman;fontStyle=0" vertex="1" parent="NjEH-Y5bsBaPho56bhVg-57">
          <mxGeometry width="10" height="10" as="geometry" />
        </mxCell>
        <mxCell id="NjEH-Y5bsBaPho56bhVg-6" value="" style="ellipse;whiteSpace=wrap;html=1;aspect=fixed;fontFamily=Times New Roman;fontStyle=0" vertex="1" parent="NjEH-Y5bsBaPho56bhVg-57">
          <mxGeometry y="20" width="10" height="10" as="geometry" />
        </mxCell>
        <mxCell id="NjEH-Y5bsBaPho56bhVg-7" value="" style="ellipse;whiteSpace=wrap;html=1;aspect=fixed;fontFamily=Times New Roman;fontStyle=0" vertex="1" parent="NjEH-Y5bsBaPho56bhVg-57">
          <mxGeometry y="40" width="10" height="10" as="geometry" />
        </mxCell>
        <mxCell id="NjEH-Y5bsBaPho56bhVg-8" value="" style="ellipse;whiteSpace=wrap;html=1;aspect=fixed;fontFamily=Times New Roman;fontStyle=0" vertex="1" parent="NjEH-Y5bsBaPho56bhVg-57">
          <mxGeometry y="60" width="10" height="10" as="geometry" />
        </mxCell>
        <mxCell id="NjEH-Y5bsBaPho56bhVg-9" value="" style="ellipse;whiteSpace=wrap;html=1;aspect=fixed;fontFamily=Times New Roman;fontStyle=0" vertex="1" parent="NjEH-Y5bsBaPho56bhVg-57">
          <mxGeometry y="80" width="10" height="10" as="geometry" />
        </mxCell>
        <mxCell id="NjEH-Y5bsBaPho56bhVg-10" value="" style="ellipse;whiteSpace=wrap;html=1;aspect=fixed;fontFamily=Times New Roman;fontStyle=0" vertex="1" parent="NjEH-Y5bsBaPho56bhVg-57">
          <mxGeometry x="30" y="30" width="10" height="10" as="geometry" />
        </mxCell>
        <mxCell id="NjEH-Y5bsBaPho56bhVg-11" value="" style="ellipse;whiteSpace=wrap;html=1;aspect=fixed;fontFamily=Times New Roman;fontStyle=0" vertex="1" parent="NjEH-Y5bsBaPho56bhVg-57">
          <mxGeometry x="30" y="10" width="10" height="10" as="geometry" />
        </mxCell>
        <mxCell id="NjEH-Y5bsBaPho56bhVg-12" value="" style="ellipse;whiteSpace=wrap;html=1;aspect=fixed;fontFamily=Times New Roman;fontStyle=0" vertex="1" parent="NjEH-Y5bsBaPho56bhVg-57">
          <mxGeometry x="30" y="50" width="10" height="10" as="geometry" />
        </mxCell>
        <mxCell id="NjEH-Y5bsBaPho56bhVg-13" value="" style="ellipse;whiteSpace=wrap;html=1;aspect=fixed;fontFamily=Times New Roman;fontStyle=0" vertex="1" parent="NjEH-Y5bsBaPho56bhVg-57">
          <mxGeometry x="30" y="70" width="10" height="10" as="geometry" />
        </mxCell>
        <mxCell id="NjEH-Y5bsBaPho56bhVg-14" value="" style="ellipse;whiteSpace=wrap;html=1;aspect=fixed;fontFamily=Times New Roman;fontStyle=0" vertex="1" parent="NjEH-Y5bsBaPho56bhVg-57">
          <mxGeometry x="60" y="30" width="10" height="10" as="geometry" />
        </mxCell>
        <mxCell id="NjEH-Y5bsBaPho56bhVg-15" value="" style="ellipse;whiteSpace=wrap;html=1;aspect=fixed;fontFamily=Times New Roman;fontStyle=0" vertex="1" parent="NjEH-Y5bsBaPho56bhVg-57">
          <mxGeometry x="60" y="50" width="10" height="10" as="geometry" />
        </mxCell>
        <mxCell id="NjEH-Y5bsBaPho56bhVg-16" style="rounded=0;orthogonalLoop=1;jettySize=auto;html=1;exitX=1;exitY=0.5;exitDx=0;exitDy=0;entryX=0;entryY=0.5;entryDx=0;entryDy=0;endArrow=none;endFill=0;endSize=6;strokeWidth=0.8;fontFamily=Times New Roman;fontStyle=0" edge="1" source="NjEH-Y5bsBaPho56bhVg-5" target="NjEH-Y5bsBaPho56bhVg-10" parent="NjEH-Y5bsBaPho56bhVg-57">
          <mxGeometry relative="1" as="geometry">
            <mxPoint x="20" y="15" as="sourcePoint" />
            <mxPoint x="40" y="25" as="targetPoint" />
          </mxGeometry>
        </mxCell>
        <mxCell id="NjEH-Y5bsBaPho56bhVg-17" style="rounded=0;orthogonalLoop=1;jettySize=auto;html=1;exitX=1;exitY=0.5;exitDx=0;exitDy=0;entryX=0;entryY=0.5;entryDx=0;entryDy=0;endArrow=none;endFill=0;endSize=6;strokeWidth=0.8;fontFamily=Times New Roman;fontStyle=0" edge="1" source="NjEH-Y5bsBaPho56bhVg-5" target="NjEH-Y5bsBaPho56bhVg-12" parent="NjEH-Y5bsBaPho56bhVg-57">
          <mxGeometry relative="1" as="geometry">
            <mxPoint x="30" y="25" as="sourcePoint" />
            <mxPoint x="50" y="35" as="targetPoint" />
          </mxGeometry>
        </mxCell>
        <mxCell id="NjEH-Y5bsBaPho56bhVg-18" style="rounded=0;orthogonalLoop=1;jettySize=auto;html=1;exitX=1;exitY=0.5;exitDx=0;exitDy=0;entryX=0;entryY=0.5;entryDx=0;entryDy=0;endArrow=none;endFill=0;endSize=6;strokeWidth=0.8;fontFamily=Times New Roman;fontStyle=0" edge="1" source="NjEH-Y5bsBaPho56bhVg-5" target="NjEH-Y5bsBaPho56bhVg-13" parent="NjEH-Y5bsBaPho56bhVg-57">
          <mxGeometry relative="1" as="geometry">
            <mxPoint x="40" y="35" as="sourcePoint" />
            <mxPoint x="60" y="45" as="targetPoint" />
          </mxGeometry>
        </mxCell>
        <mxCell id="NjEH-Y5bsBaPho56bhVg-19" style="rounded=0;orthogonalLoop=1;jettySize=auto;html=1;exitX=1;exitY=0.5;exitDx=0;exitDy=0;entryX=0;entryY=0.5;entryDx=0;entryDy=0;endArrow=none;endFill=0;endSize=6;strokeWidth=0.8;fontFamily=Times New Roman;fontStyle=0" edge="1" source="NjEH-Y5bsBaPho56bhVg-6" target="NjEH-Y5bsBaPho56bhVg-11" parent="NjEH-Y5bsBaPho56bhVg-57">
          <mxGeometry relative="1" as="geometry">
            <mxPoint x="50" y="45" as="sourcePoint" />
            <mxPoint x="70" y="55" as="targetPoint" />
          </mxGeometry>
        </mxCell>
        <mxCell id="NjEH-Y5bsBaPho56bhVg-20" style="rounded=0;orthogonalLoop=1;jettySize=auto;html=1;exitX=1;exitY=0.5;exitDx=0;exitDy=0;entryX=0;entryY=0.5;entryDx=0;entryDy=0;endArrow=none;endFill=0;endSize=6;strokeWidth=0.8;fontFamily=Times New Roman;fontStyle=0" edge="1" source="NjEH-Y5bsBaPho56bhVg-6" target="NjEH-Y5bsBaPho56bhVg-10" parent="NjEH-Y5bsBaPho56bhVg-57">
          <mxGeometry relative="1" as="geometry">
            <mxPoint x="60" y="55" as="sourcePoint" />
            <mxPoint x="80" y="65" as="targetPoint" />
          </mxGeometry>
        </mxCell>
        <mxCell id="NjEH-Y5bsBaPho56bhVg-21" style="rounded=0;orthogonalLoop=1;jettySize=auto;html=1;exitX=1;exitY=0.5;exitDx=0;exitDy=0;entryX=0;entryY=0.5;entryDx=0;entryDy=0;endArrow=none;endFill=0;endSize=6;strokeWidth=0.8;fontFamily=Times New Roman;fontStyle=0" edge="1" source="NjEH-Y5bsBaPho56bhVg-6" target="NjEH-Y5bsBaPho56bhVg-12" parent="NjEH-Y5bsBaPho56bhVg-57">
          <mxGeometry relative="1" as="geometry">
            <mxPoint x="70" y="65" as="sourcePoint" />
            <mxPoint x="90" y="75" as="targetPoint" />
          </mxGeometry>
        </mxCell>
        <mxCell id="NjEH-Y5bsBaPho56bhVg-22" style="rounded=0;orthogonalLoop=1;jettySize=auto;html=1;exitX=1;exitY=0.5;exitDx=0;exitDy=0;entryX=0;entryY=0.5;entryDx=0;entryDy=0;endArrow=none;endFill=0;endSize=6;strokeWidth=0.8;fontFamily=Times New Roman;fontStyle=0" edge="1" source="NjEH-Y5bsBaPho56bhVg-6" target="NjEH-Y5bsBaPho56bhVg-13" parent="NjEH-Y5bsBaPho56bhVg-57">
          <mxGeometry relative="1" as="geometry">
            <mxPoint x="80" y="75" as="sourcePoint" />
            <mxPoint x="100" y="85" as="targetPoint" />
          </mxGeometry>
        </mxCell>
        <mxCell id="NjEH-Y5bsBaPho56bhVg-23" style="rounded=0;orthogonalLoop=1;jettySize=auto;html=1;exitX=1;exitY=0.5;exitDx=0;exitDy=0;entryX=0;entryY=0.5;entryDx=0;entryDy=0;endArrow=none;endFill=0;endSize=6;strokeWidth=0.8;fontFamily=Times New Roman;fontStyle=0" edge="1" source="NjEH-Y5bsBaPho56bhVg-7" target="NjEH-Y5bsBaPho56bhVg-11" parent="NjEH-Y5bsBaPho56bhVg-57">
          <mxGeometry relative="1" as="geometry">
            <mxPoint x="90" y="85" as="sourcePoint" />
            <mxPoint x="110" y="95" as="targetPoint" />
          </mxGeometry>
        </mxCell>
        <mxCell id="NjEH-Y5bsBaPho56bhVg-24" style="rounded=0;orthogonalLoop=1;jettySize=auto;html=1;exitX=1;exitY=0.5;exitDx=0;exitDy=0;entryX=0;entryY=0.5;entryDx=0;entryDy=0;endArrow=none;endFill=0;endSize=6;strokeWidth=0.8;fontFamily=Times New Roman;fontStyle=0" edge="1" source="NjEH-Y5bsBaPho56bhVg-7" target="NjEH-Y5bsBaPho56bhVg-10" parent="NjEH-Y5bsBaPho56bhVg-57">
          <mxGeometry relative="1" as="geometry">
            <mxPoint x="100" y="95" as="sourcePoint" />
            <mxPoint x="120" y="105" as="targetPoint" />
          </mxGeometry>
        </mxCell>
        <mxCell id="NjEH-Y5bsBaPho56bhVg-25" style="rounded=0;orthogonalLoop=1;jettySize=auto;html=1;exitX=1;exitY=0.5;exitDx=0;exitDy=0;entryX=0;entryY=0.5;entryDx=0;entryDy=0;endArrow=none;endFill=0;endSize=6;strokeWidth=0.8;fontFamily=Times New Roman;fontStyle=0" edge="1" source="NjEH-Y5bsBaPho56bhVg-7" target="NjEH-Y5bsBaPho56bhVg-12" parent="NjEH-Y5bsBaPho56bhVg-57">
          <mxGeometry relative="1" as="geometry">
            <mxPoint x="20" y="55" as="sourcePoint" />
            <mxPoint x="40" y="45" as="targetPoint" />
          </mxGeometry>
        </mxCell>
        <mxCell id="NjEH-Y5bsBaPho56bhVg-26" style="rounded=0;orthogonalLoop=1;jettySize=auto;html=1;exitX=1;exitY=0.5;exitDx=0;exitDy=0;entryX=0;entryY=0.5;entryDx=0;entryDy=0;endArrow=none;endFill=0;endSize=6;strokeWidth=0.8;fontFamily=Times New Roman;fontStyle=0" edge="1" source="NjEH-Y5bsBaPho56bhVg-7" target="NjEH-Y5bsBaPho56bhVg-13" parent="NjEH-Y5bsBaPho56bhVg-57">
          <mxGeometry relative="1" as="geometry">
            <mxPoint x="30" y="65" as="sourcePoint" />
            <mxPoint x="50" y="55" as="targetPoint" />
          </mxGeometry>
        </mxCell>
        <mxCell id="NjEH-Y5bsBaPho56bhVg-27" style="rounded=0;orthogonalLoop=1;jettySize=auto;html=1;exitX=1;exitY=0.5;exitDx=0;exitDy=0;entryX=0;entryY=0.5;entryDx=0;entryDy=0;endArrow=none;endFill=0;endSize=6;strokeWidth=0.8;fontFamily=Times New Roman;fontStyle=0" edge="1" source="NjEH-Y5bsBaPho56bhVg-8" target="NjEH-Y5bsBaPho56bhVg-11" parent="NjEH-Y5bsBaPho56bhVg-57">
          <mxGeometry relative="1" as="geometry">
            <mxPoint x="40" y="75" as="sourcePoint" />
            <mxPoint x="60" y="65" as="targetPoint" />
          </mxGeometry>
        </mxCell>
        <mxCell id="NjEH-Y5bsBaPho56bhVg-28" style="rounded=0;orthogonalLoop=1;jettySize=auto;html=1;exitX=1;exitY=0.5;exitDx=0;exitDy=0;entryX=0;entryY=0.5;entryDx=0;entryDy=0;endArrow=none;endFill=0;endSize=6;strokeWidth=0.8;fontFamily=Times New Roman;fontStyle=0" edge="1" source="NjEH-Y5bsBaPho56bhVg-8" target="NjEH-Y5bsBaPho56bhVg-10" parent="NjEH-Y5bsBaPho56bhVg-57">
          <mxGeometry relative="1" as="geometry">
            <mxPoint x="50" y="85" as="sourcePoint" />
            <mxPoint x="70" y="75" as="targetPoint" />
          </mxGeometry>
        </mxCell>
        <mxCell id="NjEH-Y5bsBaPho56bhVg-29" style="rounded=0;orthogonalLoop=1;jettySize=auto;html=1;exitX=1;exitY=0.5;exitDx=0;exitDy=0;entryX=0;entryY=0.5;entryDx=0;entryDy=0;endArrow=none;endFill=0;endSize=6;strokeWidth=0.8;fontFamily=Times New Roman;fontStyle=0" edge="1" source="NjEH-Y5bsBaPho56bhVg-8" target="NjEH-Y5bsBaPho56bhVg-12" parent="NjEH-Y5bsBaPho56bhVg-57">
          <mxGeometry relative="1" as="geometry">
            <mxPoint x="60" y="95" as="sourcePoint" />
            <mxPoint x="80" y="85" as="targetPoint" />
          </mxGeometry>
        </mxCell>
        <mxCell id="NjEH-Y5bsBaPho56bhVg-30" style="rounded=0;orthogonalLoop=1;jettySize=auto;html=1;exitX=1;exitY=0.5;exitDx=0;exitDy=0;entryX=0;entryY=0.5;entryDx=0;entryDy=0;endArrow=none;endFill=0;endSize=6;strokeWidth=0.8;fontFamily=Times New Roman;fontStyle=0" edge="1" source="NjEH-Y5bsBaPho56bhVg-8" target="NjEH-Y5bsBaPho56bhVg-13" parent="NjEH-Y5bsBaPho56bhVg-57">
          <mxGeometry relative="1" as="geometry">
            <mxPoint x="70" y="105" as="sourcePoint" />
            <mxPoint x="90" y="95" as="targetPoint" />
          </mxGeometry>
        </mxCell>
        <mxCell id="NjEH-Y5bsBaPho56bhVg-31" style="rounded=0;orthogonalLoop=1;jettySize=auto;html=1;exitX=1;exitY=0.5;exitDx=0;exitDy=0;entryX=0;entryY=0.5;entryDx=0;entryDy=0;endArrow=none;endFill=0;endSize=6;strokeWidth=0.8;fontFamily=Times New Roman;fontStyle=0" edge="1" source="NjEH-Y5bsBaPho56bhVg-9" target="NjEH-Y5bsBaPho56bhVg-13" parent="NjEH-Y5bsBaPho56bhVg-57">
          <mxGeometry relative="1" as="geometry">
            <mxPoint x="80" y="115" as="sourcePoint" />
            <mxPoint x="100" y="105" as="targetPoint" />
          </mxGeometry>
        </mxCell>
        <mxCell id="NjEH-Y5bsBaPho56bhVg-32" style="rounded=0;orthogonalLoop=1;jettySize=auto;html=1;exitX=1;exitY=0.5;exitDx=0;exitDy=0;entryX=0;entryY=0.5;entryDx=0;entryDy=0;endArrow=none;endFill=0;endSize=6;strokeWidth=0.8;fontFamily=Times New Roman;fontStyle=0" edge="1" source="NjEH-Y5bsBaPho56bhVg-9" target="NjEH-Y5bsBaPho56bhVg-12" parent="NjEH-Y5bsBaPho56bhVg-57">
          <mxGeometry relative="1" as="geometry">
            <mxPoint x="20" y="95" as="sourcePoint" />
            <mxPoint x="40" y="85" as="targetPoint" />
          </mxGeometry>
        </mxCell>
        <mxCell id="NjEH-Y5bsBaPho56bhVg-33" style="rounded=0;orthogonalLoop=1;jettySize=auto;html=1;exitX=1;exitY=0.5;exitDx=0;exitDy=0;entryX=0;entryY=0.5;entryDx=0;entryDy=0;endArrow=none;endFill=0;endSize=6;strokeWidth=0.8;fontFamily=Times New Roman;fontStyle=0" edge="1" source="NjEH-Y5bsBaPho56bhVg-9" target="NjEH-Y5bsBaPho56bhVg-10" parent="NjEH-Y5bsBaPho56bhVg-57">
          <mxGeometry relative="1" as="geometry">
            <mxPoint x="20" y="95" as="sourcePoint" />
            <mxPoint x="40" y="65" as="targetPoint" />
          </mxGeometry>
        </mxCell>
        <mxCell id="NjEH-Y5bsBaPho56bhVg-4" style="rounded=0;orthogonalLoop=1;jettySize=auto;html=1;exitX=1;exitY=0.5;exitDx=0;exitDy=0;entryX=0;entryY=0.5;entryDx=0;entryDy=0;endArrow=none;endFill=0;endSize=6;strokeWidth=0.8;fontFamily=Times New Roman;fontStyle=0" edge="1" source="NjEH-Y5bsBaPho56bhVg-5" target="NjEH-Y5bsBaPho56bhVg-11" parent="NjEH-Y5bsBaPho56bhVg-57">
          <mxGeometry relative="1" as="geometry" />
        </mxCell>
        <mxCell id="NjEH-Y5bsBaPho56bhVg-34" style="rounded=0;orthogonalLoop=1;jettySize=auto;html=1;exitX=1;exitY=0.5;exitDx=0;exitDy=0;entryX=0;entryY=0.5;entryDx=0;entryDy=0;endArrow=none;endFill=0;endSize=6;strokeWidth=0.8;fontFamily=Times New Roman;fontStyle=0" edge="1" source="NjEH-Y5bsBaPho56bhVg-9" target="NjEH-Y5bsBaPho56bhVg-11" parent="NjEH-Y5bsBaPho56bhVg-57">
          <mxGeometry relative="1" as="geometry">
            <mxPoint x="30" y="105" as="sourcePoint" />
            <mxPoint x="50" y="75" as="targetPoint" />
          </mxGeometry>
        </mxCell>
        <mxCell id="NjEH-Y5bsBaPho56bhVg-35" style="rounded=0;orthogonalLoop=1;jettySize=auto;html=1;exitX=1;exitY=0.5;exitDx=0;exitDy=0;entryX=0;entryY=0.5;entryDx=0;entryDy=0;endArrow=none;endFill=0;endSize=6;strokeWidth=0.8;fontFamily=Times New Roman;fontStyle=0" edge="1" source="NjEH-Y5bsBaPho56bhVg-11" target="NjEH-Y5bsBaPho56bhVg-14" parent="NjEH-Y5bsBaPho56bhVg-57">
          <mxGeometry relative="1" as="geometry">
            <mxPoint x="20" y="15" as="sourcePoint" />
            <mxPoint x="40" y="25" as="targetPoint" />
          </mxGeometry>
        </mxCell>
        <mxCell id="NjEH-Y5bsBaPho56bhVg-36" style="rounded=0;orthogonalLoop=1;jettySize=auto;html=1;exitX=1;exitY=0.5;exitDx=0;exitDy=0;entryX=0;entryY=0.5;entryDx=0;entryDy=0;endArrow=none;endFill=0;endSize=6;strokeWidth=0.8;fontFamily=Times New Roman;fontStyle=0" edge="1" source="NjEH-Y5bsBaPho56bhVg-11" target="NjEH-Y5bsBaPho56bhVg-15" parent="NjEH-Y5bsBaPho56bhVg-57">
          <mxGeometry relative="1" as="geometry">
            <mxPoint x="50" y="25" as="sourcePoint" />
            <mxPoint x="70" y="45" as="targetPoint" />
          </mxGeometry>
        </mxCell>
        <mxCell id="NjEH-Y5bsBaPho56bhVg-37" style="rounded=0;orthogonalLoop=1;jettySize=auto;html=1;exitX=1;exitY=0.5;exitDx=0;exitDy=0;entryX=0;entryY=0.5;entryDx=0;entryDy=0;endArrow=none;endFill=0;endSize=6;strokeWidth=0.8;fontFamily=Times New Roman;fontStyle=0" edge="1" source="NjEH-Y5bsBaPho56bhVg-10" target="NjEH-Y5bsBaPho56bhVg-14" parent="NjEH-Y5bsBaPho56bhVg-57">
          <mxGeometry relative="1" as="geometry">
            <mxPoint x="60" y="35" as="sourcePoint" />
            <mxPoint x="80" y="55" as="targetPoint" />
          </mxGeometry>
        </mxCell>
        <mxCell id="NjEH-Y5bsBaPho56bhVg-38" style="rounded=0;orthogonalLoop=1;jettySize=auto;html=1;exitX=1;exitY=0.5;exitDx=0;exitDy=0;entryX=0;entryY=0.5;entryDx=0;entryDy=0;endArrow=none;endFill=0;endSize=6;strokeWidth=0.8;fontFamily=Times New Roman;fontStyle=0" edge="1" source="NjEH-Y5bsBaPho56bhVg-10" target="NjEH-Y5bsBaPho56bhVg-15" parent="NjEH-Y5bsBaPho56bhVg-57">
          <mxGeometry relative="1" as="geometry">
            <mxPoint x="70" y="45" as="sourcePoint" />
            <mxPoint x="90" y="65" as="targetPoint" />
          </mxGeometry>
        </mxCell>
        <mxCell id="NjEH-Y5bsBaPho56bhVg-39" style="rounded=0;orthogonalLoop=1;jettySize=auto;html=1;exitX=1;exitY=0.5;exitDx=0;exitDy=0;entryX=0;entryY=0.5;entryDx=0;entryDy=0;endArrow=none;endFill=0;endSize=6;strokeWidth=0.8;fontFamily=Times New Roman;fontStyle=0" edge="1" source="NjEH-Y5bsBaPho56bhVg-12" target="NjEH-Y5bsBaPho56bhVg-14" parent="NjEH-Y5bsBaPho56bhVg-57">
          <mxGeometry relative="1" as="geometry">
            <mxPoint x="80" y="55" as="sourcePoint" />
            <mxPoint x="100" y="75" as="targetPoint" />
          </mxGeometry>
        </mxCell>
        <mxCell id="NjEH-Y5bsBaPho56bhVg-40" style="rounded=0;orthogonalLoop=1;jettySize=auto;html=1;exitX=1;exitY=0.5;exitDx=0;exitDy=0;entryX=0;entryY=0.5;entryDx=0;entryDy=0;endArrow=none;endFill=0;endSize=6;strokeWidth=0.8;fontFamily=Times New Roman;fontStyle=0" edge="1" source="NjEH-Y5bsBaPho56bhVg-12" target="NjEH-Y5bsBaPho56bhVg-15" parent="NjEH-Y5bsBaPho56bhVg-57">
          <mxGeometry relative="1" as="geometry">
            <mxPoint x="90" y="65" as="sourcePoint" />
            <mxPoint x="110" y="85" as="targetPoint" />
          </mxGeometry>
        </mxCell>
        <mxCell id="NjEH-Y5bsBaPho56bhVg-41" style="rounded=0;orthogonalLoop=1;jettySize=auto;html=1;exitX=1;exitY=0.5;exitDx=0;exitDy=0;entryX=0;entryY=0.5;entryDx=0;entryDy=0;endArrow=none;endFill=0;endSize=6;strokeWidth=0.8;fontFamily=Times New Roman;fontStyle=0" edge="1" source="NjEH-Y5bsBaPho56bhVg-13" target="NjEH-Y5bsBaPho56bhVg-14" parent="NjEH-Y5bsBaPho56bhVg-57">
          <mxGeometry relative="1" as="geometry">
            <mxPoint x="100" y="75" as="sourcePoint" />
            <mxPoint x="120" y="95" as="targetPoint" />
          </mxGeometry>
        </mxCell>
        <mxCell id="NjEH-Y5bsBaPho56bhVg-42" style="rounded=0;orthogonalLoop=1;jettySize=auto;html=1;exitX=1;exitY=0.5;exitDx=0;exitDy=0;entryX=0;entryY=0.5;entryDx=0;entryDy=0;endArrow=none;endFill=0;endSize=6;strokeWidth=0.8;fontFamily=Times New Roman;fontStyle=0" edge="1" source="NjEH-Y5bsBaPho56bhVg-13" target="NjEH-Y5bsBaPho56bhVg-15" parent="NjEH-Y5bsBaPho56bhVg-57">
          <mxGeometry relative="1" as="geometry">
            <mxPoint x="110" y="85" as="sourcePoint" />
            <mxPoint x="130" y="105" as="targetPoint" />
          </mxGeometry>
        </mxCell>
        <mxCell id="NjEH-Y5bsBaPho56bhVg-58" value="Transmitter" style="text;html=1;align=center;verticalAlign=middle;resizable=0;points=[];autosize=1;strokeColor=none;fillColor=none;fontFamily=Times New Roman;fontStyle=1;fontSize=14;" vertex="1" parent="1">
          <mxGeometry x="130" y="40" width="100" height="30" as="geometry" />
        </mxCell>
        <mxCell id="NjEH-Y5bsBaPho56bhVg-59" value="Receiver" style="text;html=1;align=center;verticalAlign=middle;resizable=0;points=[];autosize=1;strokeColor=none;fillColor=none;fontFamily=Times New Roman;fontStyle=1;fontSize=14;" vertex="1" parent="1">
          <mxGeometry x="360" y="40" width="80" height="30" as="geometry" />
        </mxCell>
        <mxCell id="NjEH-Y5bsBaPho56bhVg-60" value="Adversarial Attacker" style="text;html=1;align=center;verticalAlign=middle;resizable=0;points=[];autosize=1;strokeColor=none;fillColor=none;fontFamily=Times New Roman;fontStyle=1;fontSize=14;fontColor=#FF0000;" vertex="1" parent="1">
          <mxGeometry x="130" y="170" width="150" height="30" as="geometry" />
        </mxCell>
        <mxCell id="NjEH-Y5bsBaPho56bhVg-61" value="DNN Model" style="text;html=1;align=center;verticalAlign=middle;resizable=0;points=[];autosize=1;strokeColor=none;fillColor=none;fontFamily=Times New Roman;fontStyle=1" vertex="1" parent="1">
          <mxGeometry x="451" y="214.38" width="90" height="30" as="geometry" />
        </mxCell>
        <mxCell id="NjEH-Y5bsBaPho56bhVg-116" value="" style="edgeStyle=orthogonalEdgeStyle;rounded=0;orthogonalLoop=1;jettySize=auto;html=1;fontStyle=0;fontFamily=Times New Roman;" edge="1" parent="1" source="NjEH-Y5bsBaPho56bhVg-62" target="NjEH-Y5bsBaPho56bhVg-51">
          <mxGeometry relative="1" as="geometry" />
        </mxCell>
        <mxCell id="NjEH-Y5bsBaPho56bhVg-62" value="Modulation&lt;br&gt;Classification" style="rounded=1;whiteSpace=wrap;html=1;fontFamily=Times New Roman;fontStyle=0" vertex="1" parent="1">
          <mxGeometry x="455" y="124.25" width="90" height="40" as="geometry" />
        </mxCell>
        <mxCell id="NjEH-Y5bsBaPho56bhVg-67" value="&lt;font style=&quot;font-size: 11px;&quot;&gt;16QAM&lt;/font&gt;" style="ellipse;whiteSpace=wrap;html=1;fontFamily=Times New Roman;fontStyle=0;fillColor=#d5e8d4;strokeColor=#82b366;" vertex="1" parent="1">
          <mxGeometry x="172.5" y="126.25" width="45" height="25" as="geometry" />
        </mxCell>
        <mxCell id="NjEH-Y5bsBaPho56bhVg-79" style="rounded=0;orthogonalLoop=1;jettySize=auto;html=1;endArrow=blockThin;endFill=1;fontStyle=0;fontFamily=Times New Roman;exitX=1;exitY=0.75;exitDx=0;exitDy=0;entryX=0;entryY=0.5;entryDx=0;entryDy=0;" edge="1" parent="1" source="NjEH-Y5bsBaPho56bhVg-133" target="NjEH-Y5bsBaPho56bhVg-132">
          <mxGeometry relative="1" as="geometry">
            <mxPoint x="320" y="150" as="sourcePoint" />
            <mxPoint x="350" y="150" as="targetPoint" />
          </mxGeometry>
        </mxCell>
        <mxCell id="NjEH-Y5bsBaPho56bhVg-68" value="TX Antenna" style="text;html=1;align=center;verticalAlign=middle;resizable=0;points=[];autosize=1;strokeColor=none;fillColor=none;fontFamily=Times New Roman;fontStyle=0" vertex="1" parent="1">
          <mxGeometry x="245" y="108.75" width="80" height="30" as="geometry" />
        </mxCell>
        <mxCell id="NjEH-Y5bsBaPho56bhVg-89" value="Baseband&lt;br&gt;Signal" style="text;html=1;align=center;verticalAlign=middle;resizable=0;points=[];autosize=1;strokeColor=none;fillColor=none;fontStyle=0;fontFamily=Times New Roman;" vertex="1" parent="1">
          <mxGeometry x="50" y="63.75" width="70" height="40" as="geometry" />
        </mxCell>
        <mxCell id="NjEH-Y5bsBaPho56bhVg-94" value="" style="shape=flexArrow;endArrow=classic;html=1;rounded=0;endWidth=12.16873985938345;endSize=2.3581395348837213;width=8.837209302325581;entryX=0.5;entryY=1;entryDx=0;entryDy=0;exitX=0.5;exitY=0;exitDx=0;exitDy=0;fontStyle=0;fontFamily=Times New Roman;" edge="1" parent="1" source="NjEH-Y5bsBaPho56bhVg-67" target="NjEH-Y5bsBaPho56bhVg-49">
          <mxGeometry width="50" height="50" relative="1" as="geometry">
            <mxPoint x="195" y="123.75" as="sourcePoint" />
            <mxPoint x="194.76999999999998" y="103.75" as="targetPoint" />
          </mxGeometry>
        </mxCell>
        <mxCell id="NjEH-Y5bsBaPho56bhVg-102" value="$$\boldsymbol{x}$$" style="text;html=1;align=center;verticalAlign=middle;resizable=0;points=[];autosize=1;strokeColor=none;fillColor=none;fontFamily=Times New Roman;fontStyle=0" vertex="1" parent="1">
          <mxGeometry x="239" y="76" width="130" height="30" as="geometry" />
        </mxCell>
        <mxCell id="NjEH-Y5bsBaPho56bhVg-106" style="edgeStyle=orthogonalEdgeStyle;rounded=0;orthogonalLoop=1;jettySize=auto;html=1;exitX=1;exitY=0.25;exitDx=0;exitDy=0;endArrow=classicThin;endFill=1;fontStyle=0;fontFamily=Times New Roman;" edge="1" parent="1">
          <mxGeometry relative="1" as="geometry">
            <mxPoint x="577" y="130.00806451612902" as="targetPoint" />
            <mxPoint x="545" y="130.75" as="sourcePoint" />
          </mxGeometry>
        </mxCell>
        <mxCell id="NjEH-Y5bsBaPho56bhVg-107" style="edgeStyle=orthogonalEdgeStyle;rounded=0;orthogonalLoop=1;jettySize=auto;html=1;exitX=1;exitY=0.75;exitDx=0;exitDy=0;endArrow=classicThin;endFill=1;strokeColor=#FF0000;fontStyle=0;fontFamily=Times New Roman;dashed=1;" edge="1" parent="1">
          <mxGeometry relative="1" as="geometry">
            <mxPoint x="577" y="155.16935483870964" as="targetPoint" />
            <mxPoint x="545" y="155.75" as="sourcePoint" />
          </mxGeometry>
        </mxCell>
        <mxCell id="NjEH-Y5bsBaPho56bhVg-108" value="&lt;font style=&quot;font-size: 11px;&quot;&gt;16QAM&lt;/font&gt;" style="ellipse;whiteSpace=wrap;html=1;fontFamily=Times New Roman;fontStyle=0;fillColor=#d5e8d4;strokeColor=#82b366;" vertex="1" parent="1">
          <mxGeometry x="578" y="118.75" width="45" height="25" as="geometry" />
        </mxCell>
        <mxCell id="NjEH-Y5bsBaPho56bhVg-109" value="&lt;font style=&quot;font-size: 11px;&quot;&gt;8PSK&lt;/font&gt;" style="ellipse;whiteSpace=wrap;html=1;fontFamily=Times New Roman;fontStyle=0;fillColor=#f8cecc;strokeColor=#b85450;" vertex="1" parent="1">
          <mxGeometry x="578" y="143.75" width="45" height="25" as="geometry" />
        </mxCell>
        <mxCell id="NjEH-Y5bsBaPho56bhVg-113" value="Output" style="text;html=1;align=center;verticalAlign=middle;resizable=0;points=[];autosize=1;strokeColor=none;fillColor=none;fontStyle=0;fontFamily=Times New Roman;" vertex="1" parent="1">
          <mxGeometry x="654" y="68.75" width="60" height="30" as="geometry" />
        </mxCell>
        <mxCell id="NjEH-Y5bsBaPho56bhVg-117" value="" style="shape=flexArrow;endArrow=classic;html=1;rounded=0;endWidth=12.16873985938345;endSize=2.3581395348837213;width=8.837209302325581;entryX=0.5;entryY=1;entryDx=0;entryDy=0;exitX=0.5;exitY=0;exitDx=0;exitDy=0;fontStyle=0;fontFamily=Times New Roman;" edge="1" parent="1">
          <mxGeometry width="50" height="50" relative="1" as="geometry">
            <mxPoint x="499.76" y="189" as="sourcePoint" />
            <mxPoint x="499.76" y="164.25" as="targetPoint" />
          </mxGeometry>
        </mxCell>
        <mxCell id="NjEH-Y5bsBaPho56bhVg-146" value="" style="edgeStyle=orthogonalEdgeStyle;rounded=0;orthogonalLoop=1;jettySize=auto;html=1;curved=1;entryX=0.989;entryY=0.54;entryDx=0;entryDy=0;entryPerimeter=0;exitX=1.003;exitY=0.515;exitDx=0;exitDy=0;exitPerimeter=0;endArrow=classicThin;endFill=1;strokeColor=#FF0000;labelBorderColor=none;fontFamily=Times New Roman;dashed=1;" edge="1" parent="1">
          <mxGeometry relative="1" as="geometry">
            <mxPoint x="674.1799999999998" y="131.7" as="sourcePoint" />
            <mxPoint x="673.34" y="157.2" as="targetPoint" />
            <Array as="points">
              <mxPoint x="689" y="132" />
              <mxPoint x="689" y="157" />
            </Array>
          </mxGeometry>
        </mxCell>
        <mxCell id="NjEH-Y5bsBaPho56bhVg-118" value="Correct" style="text;html=1;align=center;verticalAlign=middle;resizable=0;points=[];autosize=1;strokeColor=none;fillColor=none;fontStyle=1;fontFamily=Times New Roman;fontColor=#82B366;" vertex="1" parent="1">
          <mxGeometry x="623" y="116.25" width="60" height="30" as="geometry" />
        </mxCell>
        <mxCell id="NjEH-Y5bsBaPho56bhVg-119" value="Wrong" style="text;html=1;align=center;verticalAlign=middle;resizable=0;points=[];autosize=1;strokeColor=none;fillColor=none;fontStyle=1;fontFamily=Times New Roman;fontColor=#B85450;" vertex="1" parent="1">
          <mxGeometry x="623" y="141" width="60" height="30" as="geometry" />
        </mxCell>
        <mxCell id="NjEH-Y5bsBaPho56bhVg-130" style="rounded=0;orthogonalLoop=1;jettySize=auto;html=1;dashed=1;endArrow=blockThin;endFill=1;strokeColor=#FF0000;fontStyle=0;fontFamily=Times New Roman;exitX=1;exitY=0.5;exitDx=0;exitDy=0;entryX=0;entryY=0.5;entryDx=0;entryDy=0;" edge="1" parent="1" source="NjEH-Y5bsBaPho56bhVg-1" target="NjEH-Y5bsBaPho56bhVg-110">
          <mxGeometry relative="1" as="geometry">
            <mxPoint x="310" y="220" as="sourcePoint" />
            <mxPoint x="410" y="340" as="targetPoint" />
          </mxGeometry>
        </mxCell>
        <mxCell id="NjEH-Y5bsBaPho56bhVg-131" value="available" style="text;html=1;align=center;verticalAlign=middle;resizable=0;points=[];autosize=1;strokeColor=none;fillColor=none;fontColor=#FF0000;fontFamily=Times New Roman;" vertex="1" parent="1">
          <mxGeometry x="367" y="234.38" width="70" height="30" as="geometry" />
        </mxCell>
        <mxCell id="NjEH-Y5bsBaPho56bhVg-133" value="" style="shape=image;verticalLabelPosition=bottom;labelBackgroundColor=default;verticalAlign=top;aspect=fixed;imageAspect=0;image=data:image/svg+xml,PHN2ZyB4bWxuczp4bGluaz0iaHR0cDovL3d3dy53My5vcmcvMTk5OS94bGluayIgeG1sbnM9Imh0dHA6Ly93d3cudzMub3JnLzIwMDAvc3ZnIiBoZWlnaHQ9IjIwMCIgd2lkdGg9IjIwMCIgdmVyc2lvbj0iMS4xIiB2aWV3Qm94PSIwIDAgMTAyNCAxMDI0IiBjbGFzcz0iaWNvbiI+PHBhdGggZmlsbD0iIzJjMmMyYyIgZD0iTTg4My44NzA0OCA5NzMuODA4bC00OS40LTk4LjhhMTAxLjg0IDEwMS44NCAwIDAgMC05MS41OTItNTYuNmgtMTYuMjQ4TDU4NC4xMTA0OCAyNDIuNTEyYTEwMi4wOCAxMDIuMDggMCAwIDAgMzAuMjk2LTcyLjY0YzAtNTYuNDU2LTQ1LjkzNi0xMDIuNC0xMDIuNC0xMDIuNC01Ni40NjQgMC0xMDIuNCA0NS45NDQtMTAyLjQgMTAyLjRhMTAyLjA4IDEwMi4wOCAwIDAgMCAzMC4yOTYgNzIuNjRsLTE0Mi41MiA1NzUuODk2aC0xNS4yYTEwMS45NiAxMDEuOTYgMCAwIDAtOTEuMiA1NS44MzJsLTUwLjcwNCA5OS4zMTJjLTExLjYgMjIuNzA0IDQuOTYgNDkuNjU2IDMwLjQgNDkuNjU2aDY4Mi42NTZjMjUuMzEyIDAgNDEuODgtMjYuNzA0IDMwLjUzNi00OS40eiBtLTI0My40OC0yMTkuNjhsLTc3LjAwOC02OC40NTYgNDkuMjQtNDMuNzY4IDI3Ljc2OCAxMTIuMjE2eiBtLTMwLjQyNCA2NC4yOGgtMTk1LjkyTDUxMi4wMDY0OCA3MzEuMzM2bDk3Ljk2IDg3LjA3MnpNNTEyLjAwNjQ4IDEzNS43NDRhMzQuMTc2IDM0LjE3NiAwIDAgMSAzNC4xMzYgMzQuMTM2QTM0LjE3NiAzNC4xNzYgMCAwIDEgNTEyLjAwNjQ4IDIwNC4wMTZhMzQuMTc2IDM0LjE3NiAwIDAgMS0zNC4xMzYtMzQuMTM2QTM0LjE3NiAzNC4xNzYgMCAwIDEgNTEyLjAwNjQ4IDEzNS43NDR6IG0tOS4wNCAxMzYuMTEyYzIuOTg0IDAuMjY0IDYgMC40MjQgOS4wNCAwLjQyNCAzLjA0IDAgNi4wNTYtMC4xNiA5LjA0LTAuNDI0bDMzLjg4OCAxMzYuOTZINDY5LjA3ODQ4bDMzLjg4OC0xMzYuOTZ6IG0tNTAuNzg0IDIwNS4yMjRoMTE5LjY0OGwyMi4yNjQgODkuOTUyTDUxMi4wMDY0OCA2NDBsLTgyLjA4LTcyLjk2IDIyLjI1Ni04OS45NTJ6IG0tNDAuNzg0IDE2NC44MjRsNDkuMjMyIDQzLjc2LTc3LjAwOCA2OC40NTYgMjcuNzc2LTExMi4yMTZ6IG0tMTg0Ljk2OCAzMTMuMDRsMjUuMzYtNDkuNjU2YTMzLjk4NCAzMy45ODQgMCAwIDEgMzAuNC0xOC42MTZoNDYwLjY4OGMxMy4wMTYgMCAyNC43MTIgNy4yMzIgMzAuNTI4IDE4Ljg3MmwyNC43MDQgNDkuNGgtNTcxLjY4eiBtNzc3LjUyLTkyNy4xNDRhNTEzLjI0OCA1MTMuMjQ4IDAgMCAxIDAgMjg0LjE1MiAzNC4xMjggMzQuMTI4IDAgMSAxLTY1LjU3Ni0xOC45NiA0NDQuOTQ0IDQ0NC45NDQgMCAwIDAgMC0yNDYuMjI0IDM0LjEzNiAzNC4xMzYgMCAwIDEgNjUuNTc2LTE4Ljk2ek04Ni40OTQ0OCA0My44NDhhNDQ0Ljg0OCA0NDQuODQ4IDAgMCAwIDAgMjUyLjA1NiAzNC4xMjggMzQuMTI4IDAgMSAxLTY1LjQ0IDE5LjQyNCA1MTMuMTA0IDUxMy4xMDQgMCAwIDEgMC0yOTAuODk2IDM0LjEyOCAzNC4xMjggMCAxIDEgNjUuNDQgMTkuNDE2eiBtNzg0LjYxNiAxNi4yOGEzNzYuMTA0IDM3Ni4xMDQgMCAwIDEgMCAyMTkuNDk2IDM0LjEzNiAzNC4xMzYgMCAwIDEtNjUuMjgtMTkuOTkyIDMwNy43OTIgMzA3Ljc5MiAwIDAgMCAwLTE3OS41MiAzNC4xMzYgMzQuMTM2IDAgMCAxIDY1LjI4LTE5Ljk4NHpNMjE5LjA2MjQ4IDc3LjMwNGEzMDcuNzM2IDMwNy43MzYgMCAwIDAgMCAxODUuMTUyIDM0LjEzNiAzNC4xMzYgMCAwIDEtNjUuMDggMjAuNjE2IDM3NS45NiAzNzUuOTYgMCAwIDEgMC0yMjYuMzg0IDM0LjEyOCAzNC4xMjggMCAxIDEgNjUuMDggMjAuNjE2eiBtNTE4Ljc5MiAxNC41MjhhMjM5LjEyOCAyMzkuMTI4IDAgMCAxIDAgMTU2LjA4OCAzNC4xMzYgMzQuMTM2IDAgMCAxLTY0LjUwNC0yMi4zNDQgMTcwLjg2NCAxNzAuODY0IDAgMCAwIDAtMTExLjM5MiAzNC4xMzYgMzQuMTM2IDAgMCAxIDY0LjUwNC0yMi4zNTJ6IG0tMzg2LjI2NCAxOS43NmExNzAuNzYgMTcwLjc2IDAgMCAwIDAgMTE2LjU2IDM0LjEyOCAzNC4xMjggMCAxIDEtNjQuMTM2IDIzLjM4NCAyMzkuMDA4IDIzOS4wMDggMCAwIDEgMC0xNjMuMzIgMzQuMTI4IDM0LjEyOCAwIDEgMSA2NC4xMzYgMjMuMzg0eiIvPjwvc3ZnPg==;fontFamily=Times New Roman;" vertex="1" parent="1">
          <mxGeometry x="260" y="58.75" width="50" height="50" as="geometry" />
        </mxCell>
        <mxCell id="NjEH-Y5bsBaPho56bhVg-99" style="edgeStyle=orthogonalEdgeStyle;rounded=0;orthogonalLoop=1;jettySize=auto;html=1;exitX=1;exitY=0.25;exitDx=0;exitDy=0;endArrow=classicThin;endFill=1;fontStyle=0;fontFamily=Times New Roman;" edge="1" parent="1">
          <mxGeometry relative="1" as="geometry">
            <mxPoint x="454" y="131.00806451612902" as="targetPoint" />
            <mxPoint x="422" y="131.25" as="sourcePoint" />
          </mxGeometry>
        </mxCell>
        <mxCell id="NjEH-Y5bsBaPho56bhVg-100" style="edgeStyle=orthogonalEdgeStyle;rounded=0;orthogonalLoop=1;jettySize=auto;html=1;exitX=1;exitY=0.75;exitDx=0;exitDy=0;endArrow=classicThin;endFill=1;strokeColor=#FF0000;fontStyle=0;fontFamily=Times New Roman;dashed=1;" edge="1" parent="1">
          <mxGeometry relative="1" as="geometry">
            <mxPoint x="454" y="156.16935483870964" as="targetPoint" />
            <mxPoint x="422" y="156.25" as="sourcePoint" />
          </mxGeometry>
        </mxCell>
        <mxCell id="NjEH-Y5bsBaPho56bhVg-69" value="RX Antenna" style="text;html=1;align=center;verticalAlign=middle;resizable=0;points=[];autosize=1;strokeColor=none;fillColor=none;fontFamily=Times New Roman;fontStyle=0" vertex="1" parent="1">
          <mxGeometry x="357" y="168.75" width="80" height="30" as="geometry" />
        </mxCell>
        <mxCell id="NjEH-Y5bsBaPho56bhVg-124" value="" style="shape=orEllipse;perimeter=ellipsePerimeter;whiteSpace=wrap;html=1;backgroundOutline=1;fontStyle=0;aspect=fixed;fillColor=#f5f5f5;fontColor=#333333;strokeColor=#666666;fontFamily=Times New Roman;" vertex="1" parent="1">
          <mxGeometry x="331" y="50" width="20" height="20" as="geometry" />
        </mxCell>
        <mxCell id="NjEH-Y5bsBaPho56bhVg-139" style="rounded=0;orthogonalLoop=1;jettySize=auto;html=1;endArrow=blockThin;endFill=1;strokeColor=#666666;entryX=0;entryY=0.5;entryDx=0;entryDy=0;exitX=1;exitY=1;exitDx=0;exitDy=0;dashed=1;dashPattern=1 2;fontFamily=Times New Roman;" edge="1" parent="1" source="NjEH-Y5bsBaPho56bhVg-124" target="NjEH-Y5bsBaPho56bhVg-132">
          <mxGeometry relative="1" as="geometry">
            <mxPoint x="400" y="370" as="sourcePoint" />
            <mxPoint x="430" y="400" as="targetPoint" />
          </mxGeometry>
        </mxCell>
        <mxCell id="NjEH-Y5bsBaPho56bhVg-125" value="noise" style="text;html=1;align=center;verticalAlign=middle;resizable=0;points=[];autosize=1;strokeColor=none;fillColor=none;fontFamily=Times New Roman;fontColor=#666666;" vertex="1" parent="1">
          <mxGeometry x="310" y="28.75" width="50" height="30" as="geometry" />
        </mxCell>
        <mxCell id="NjEH-Y5bsBaPho56bhVg-129" value="$$\boldsymbol{n}$$" style="text;html=1;align=center;verticalAlign=middle;resizable=0;points=[];autosize=1;strokeColor=none;fillColor=none;fontFamily=Times New Roman;fontStyle=0;fontColor=#666666;" vertex="1" parent="1">
          <mxGeometry x="289" y="28.75" width="130" height="30" as="geometry" />
        </mxCell>
        <mxCell id="NjEH-Y5bsBaPho56bhVg-143" value="" style="shape=image;verticalLabelPosition=bottom;labelBackgroundColor=default;verticalAlign=top;aspect=fixed;imageAspect=0;image=data:image/svg+xml,PHN2ZyB4bWxucz0iaHR0cDovL3d3dy53My5vcmcvMjAwMC9zdmciIHhtbG5zOnhsaW5rPSJodHRwOi8vd3d3LnczLm9yZy8xOTk5L3hsaW5rIiB2ZXJzaW9uPSIxLjEiIHZpZXdCb3g9IjAgMCA0NjAuOCAzNDUuNiIgaGVpZ2h0PSIzNDUuNnB0IiB3aWR0aD0iNDYwLjhwdCI+JiN4YTsgPG1ldGFkYXRhPiYjeGE7ICAmI3hhOyAgICYjeGE7ICAgICYjeGE7ICAgIDIwMjMtMTAtMjRUMTY6MzA6MzQuOTE3NjM4JiN4YTsgICAgaW1hZ2Uvc3ZnK3htbCYjeGE7ICAgICYjeGE7ICAgICAmI3hhOyAgICAgIE1hdHBsb3RsaWIgdjMuNi4xLCBodHRwczovL21hdHBsb3RsaWIub3JnLyYjeGE7ICAgICAmI3hhOyAgICAmI3hhOyAgICYjeGE7ICAmI3hhOyA8L21ldGFkYXRhPiYjeGE7IDxkZWZzPiYjeGE7ICA8c3R5bGUgdHlwZT0idGV4dC9jc3MiPip7c3Ryb2tlLWxpbmVqb2luOiByb3VuZDsgc3Ryb2tlLWxpbmVjYXA6IGJ1dHR9PC9zdHlsZT4mI3hhOyA8L2RlZnM+JiN4YTsgPGcgaWQ9ImZpZ3VyZV8xIj4mI3hhOyAgPGcgaWQ9InBhdGNoXzEiPiYjeGE7ICAgPHBhdGggc3R5bGU9ImZpbGw6ICNmZmZmZmYiIGQ9Ik0gMCAzNDUuNiAmIzEwO0wgNDYwLjggMzQ1LjYgJiMxMDtMIDQ2MC44IDAgJiMxMDtMIDAgMCAmIzEwO3oiLz4mI3hhOyAgPC9nPiYjeGE7ICA8ZyBpZD0iYXhlc18xIj4mI3hhOyAgIDxnIGlkPSJwYXRjaF8yIj4mI3hhOyAgICA8cGF0aCBzdHlsZT0iZmlsbDogI2ZmZmZmZiIgZD0iTSA1Ny42IDMwNy41ODQgJiMxMDtMIDQxNC43MiAzMDcuNTg0ICYjMTA7TCA0MTQuNzIgNDEuNDcyICYjMTA7TCA1Ny42IDQxLjQ3MiAmIzEwO3oiLz4mI3hhOyAgIDwvZz4mI3hhOyAgIDxnIGlkPSJtYXRwbG90bGliLmF4aXNfMSI+JiN4YTsgICAgPGcgaWQ9InRleHRfMSI+JiN4YTsgICAgICYjeGE7ICAgICA8ZyB0cmFuc2Zvcm09InRyYW5zbGF0ZSgyMDYuMTMgMzI1LjcyMTgxMikgc2NhbGUoMC4xNCAtMC4xNCkiPiYjeGE7ICAgICAgPGRlZnM+JiN4YTsgICAgICAgPHBhdGggdHJhbnNmb3JtPSJzY2FsZSgwLjAxNTYyNSkiIGQ9Ik0gNjAzIDM1MDAgJiMxMDtMIDExNzggMzUwMCAmIzEwO0wgMTE3OCAwICYjMTA7TCA2MDMgMCAmIzEwO0wgNjAzIDM1MDAgJiMxMDt6JiMxMDtNIDYwMyA0ODYzICYjMTA7TCAxMTc4IDQ4NjMgJiMxMDtMIDExNzggNDEzNCAmIzEwO0wgNjAzIDQxMzQgJiMxMDtMIDYwMyA0ODYzICYjMTA7eiIgaWQ9IkRlamFWdVNhbnMtNjkiLz4mI3hhOyAgICAgICA8cGF0aCB0cmFuc2Zvcm09InNjYWxlKDAuMDE1NjI1KSIgZD0iTSAzNTEzIDIxMTMgJiMxMDtMIDM1MTMgMCAmIzEwO0wgMjkzOCAwICYjMTA7TCAyOTM4IDIwOTQgJiMxMDtRIDI5MzggMjU5MSAyNzQ0IDI4MzcgJiMxMDtRIDI1NTAgMzA4NCAyMTYzIDMwODQgJiMxMDtRIDE2OTcgMzA4NCAxNDI4IDI3ODcgJiMxMDtRIDExNTkgMjQ5MSAxMTU5IDE5NzggJiMxMDtMIDExNTkgMCAmIzEwO0wgNTgxIDAgJiMxMDtMIDU4MSAzNTAwICYjMTA7TCAxMTU5IDM1MDAgJiMxMDtMIDExNTkgMjk1NiAmIzEwO1EgMTM2NiAzMjcyIDE2NDUgMzQyOCAmIzEwO1EgMTkyNSAzNTg0IDIyOTEgMzU4NCAmIzEwO1EgMjg5NCAzNTg0IDMyMDMgMzIxMSAmIzEwO1EgMzUxMyAyODM4IDM1MTMgMjExMyAmIzEwO3oiIGlkPSJEZWphVnVTYW5zLTZlIi8+JiN4YTsgICAgICAgPHBhdGggdHJhbnNmb3JtPSJzY2FsZSgwLjAxNTYyNSkiIGQ9Ik0gMzEzIDIwMDkgJiMxMDtMIDE5OTcgMjAwOSAmIzEwO0wgMTk5NyAxNDk3ICYjMTA7TCAzMTMgMTQ5NyAmIzEwO0wgMzEzIDIwMDkgJiMxMDt6IiBpZD0iRGVqYVZ1U2Fucy0yZCIvPiYjeGE7ICAgICAgIDxwYXRoIHRyYW5zZm9ybT0ic2NhbGUoMC4wMTU2MjUpIiBkPSJNIDExNTkgNTI1ICYjMTA7TCAxMTU5IC0xMzMxICYjMTA7TCA1ODEgLTEzMzEgJiMxMDtMIDU4MSAzNTAwICYjMTA7TCAxMTU5IDM1MDAgJiMxMDtMIDExNTkgMjk2OSAmIzEwO1EgMTM0MSAzMjgxIDE2MTcgMzQzMiAmIzEwO1EgMTg5NCAzNTg0IDIyNzggMzU4NCAmIzEwO1EgMjkxNiAzNTg0IDMzMTQgMzA3OCAmIzEwO1EgMzcxMyAyNTcyIDM3MTMgMTc0NyAmIzEwO1EgMzcxMyA5MjIgMzMxNCA0MTUgJiMxMDtRIDI5MTYgLTkxIDIyNzggLTkxICYjMTA7USAxODk0IC05MSAxNjE3IDYxICYjMTA7USAxMzQxIDIxMyAxMTU5IDUyNSAmIzEwO3omIzEwO00gMzExNiAxNzQ3ICYjMTA7USAzMTE2IDIzODEgMjg1NSAyNzQyICYjMTA7USAyNTk0IDMxMDMgMjEzOCAzMTAzICYjMTA7USAxNjgxIDMxMDMgMTQyMCAyNzQyICYjMTA7USAxMTU5IDIzODEgMTE1OSAxNzQ3ICYjMTA7USAxMTU5IDExMTMgMTQyMCA3NTIgJiMxMDtRIDE2ODEgMzkxIDIxMzggMzkxICYjMTA7USAyNTk0IDM5MSAyODU1IDc1MiAmIzEwO1EgMzExNiAxMTEzIDMxMTYgMTc0NyAmIzEwO3oiIGlkPSJEZWphVnVTYW5zLTcwIi8+JiN4YTsgICAgICAgPHBhdGggdHJhbnNmb3JtPSJzY2FsZSgwLjAxNTYyNSkiIGQ9Ik0gMzUxMyAyMTEzICYjMTA7TCAzNTEzIDAgJiMxMDtMIDI5MzggMCAmIzEwO0wgMjkzOCAyMDk0ICYjMTA7USAyOTM4IDI1OTEgMjc0NCAyODM3ICYjMTA7USAyNTUwIDMwODQgMjE2MyAzMDg0ICYjMTA7USAxNjk3IDMwODQgMTQyOCAyNzg3ICYjMTA7USAxMTU5IDI0OTEgMTE1OSAxOTc4ICYjMTA7TCAxMTU5IDAgJiMxMDtMIDU4MSAwICYjMTA7TCA1ODEgNDg2MyAmIzEwO0wgMTE1OSA0ODYzICYjMTA7TCAxMTU5IDI5NTYgJiMxMDtRIDEzNjYgMzI3MiAxNjQ1IDM0MjggJiMxMDtRIDE5MjUgMzU4NCAyMjkxIDM1ODQgJiMxMDtRIDI4OTQgMzU4NCAzMjAzIDMyMTEgJiMxMDtRIDM1MTMgMjgzOCAzNTEzIDIxMTMgJiMxMDt6IiBpZD0iRGVqYVZ1U2Fucy02OCIvPiYjeGE7ICAgICAgIDxwYXRoIHRyYW5zZm9ybT0ic2NhbGUoMC4wMTU2MjUpIiBkPSJNIDIxOTQgMTc1OSAmIzEwO1EgMTQ5NyAxNzU5IDEyMjggMTYwMCAmIzEwO1EgOTU5IDE0NDEgOTU5IDEwNTYgJiMxMDtRIDk1OSA3NTAgMTE2MSA1NzAgJiMxMDtRIDEzNjMgMzkxIDE3MDkgMzkxICYjMTA7USAyMTg4IDM5MSAyNDc3IDczMCAmIzEwO1EgMjc2NiAxMDY5IDI3NjYgMTYzMSAmIzEwO0wgMjc2NiAxNzU5ICYjMTA7TCAyMTk0IDE3NTkgJiMxMDt6JiMxMDtNIDMzNDEgMTk5NyAmIzEwO0wgMzM0MSAwICYjMTA7TCAyNzY2IDAgJiMxMDtMIDI3NjYgNTMxICYjMTA7USAyNTY5IDIxMyAyMjc1IDYxICYjMTA7USAxOTgxIC05MSAxNTU2IC05MSAmIzEwO1EgMTAxOSAtOTEgNzAxIDIxMSAmIzEwO1EgMzg0IDUxMyAzODQgMTAxOSAmIzEwO1EgMzg0IDE2MDkgNzc5IDE5MDkgJiMxMDtRIDExNzUgMjIwOSAxOTU5IDIyMDkgJiMxMDtMIDI3NjYgMjIwOSAmIzEwO0wgMjc2NiAyMjY2ICYjMTA7USAyNzY2IDI2NjMgMjUwNSAyODgwICYjMTA7USAyMjQ0IDMwOTcgMTc3MiAzMDk3ICYjMTA7USAxNDcyIDMwOTcgMTE4NyAzMDI1ICYjMTA7USA5MDMgMjk1MyA2NDEgMjgwOSAmIzEwO0wgNjQxIDMzNDEgJiMxMDtRIDk1NiAzNDYzIDEyNTMgMzUyMyAmIzEwO1EgMTU1MCAzNTg0IDE4MzEgMzU4NCAmIzEwO1EgMjU5MSAzNTg0IDI5NjYgMzE5MCAmIzEwO1EgMzM0MSAyNzk3IDMzNDEgMTk5NyAmIzEwO3oiIGlkPSJEZWphVnVTYW5zLTYxIi8+JiN4YTsgICAgICAgPHBhdGggdHJhbnNmb3JtPSJzY2FsZSgwLjAxNTYyNSkiIGQ9Ik0gMjgzNCAzMzk3ICYjMTA7TCAyODM0IDI4NTMgJiMxMDtRIDI1OTEgMjk3OCAyMzI4IDMwNDAgJiMxMDtRIDIwNjYgMzEwMyAxNzg0IDMxMDMgJiMxMDtRIDEzNTYgMzEwMyAxMTQyIDI5NzIgJiMxMDtRIDkyOCAyODQxIDkyOCAyNTc4ICYjMTA7USA5MjggMjM3OCAxMDgxIDIyNjQgJiMxMDtRIDEyMzQgMjE1MCAxNjk3IDIwNDcgJiMxMDtMIDE4OTQgMjAwMyAmIzEwO1EgMjUwNiAxODcyIDI3NjQgMTYzMyAmIzEwO1EgMzAyMiAxMzk0IDMwMjIgOTY2ICYjMTA7USAzMDIyIDQ3OCAyNjM2IDE5MyAmIzEwO1EgMjI1MCAtOTEgMTU3NSAtOTEgJiMxMDtRIDEyOTQgLTkxIDk4OSAtMzYgJiMxMDtRIDY4NCAxOSAzNDcgMTI4ICYjMTA7TCAzNDcgNzIyICYjMTA7USA2NjYgNTU2IDk3NSA0NzMgJiMxMDtRIDEyODQgMzkxIDE1ODggMzkxICYjMTA7USAxOTk0IDM5MSAyMjEyIDUzMCAmIzEwO1EgMjQzMSA2NjkgMjQzMSA5MjIgJiMxMDtRIDI0MzEgMTE1NiAyMjczIDEyODEgJiMxMDtRIDIxMTYgMTQwNiAxNTgxIDE1MjIgJiMxMDtMIDEzODEgMTU2OSAmIzEwO1EgODQ3IDE2ODEgNjA5IDE5MTQgJiMxMDtRIDM3MiAyMTQ3IDM3MiAyNTUzICYjMTA7USAzNzIgMzA0NyA3MjIgMzMxNSAmIzEwO1EgMTA3MiAzNTg0IDE3MTYgMzU4NCAmIzEwO1EgMjAzNCAzNTg0IDIzMTUgMzUzNyAmIzEwO1EgMjU5NyAzNDkxIDI4MzQgMzM5NyAmIzEwO3oiIGlkPSJEZWphVnVTYW5zLTczIi8+JiN4YTsgICAgICAgPHBhdGggdHJhbnNmb3JtPSJzY2FsZSgwLjAxNTYyNSkiIGQ9Ik0gMzU5NyAxODk0ICYjMTA7TCAzNTk3IDE2MTMgJiMxMDtMIDk1MyAxNjEzICYjMTA7USA5OTEgMTAxOSAxMzExIDcwOCAmIzEwO1EgMTYzMSAzOTcgMjIwMyAzOTcgJiMxMDtRIDI1MzQgMzk3IDI4NDUgNDc4ICYjMTA7USAzMTU2IDU1OSAzNDYzIDcyMiAmIzEwO0wgMzQ2MyAxNzggJiMxMDtRIDMxNTMgNDcgMjgyOCAtMjIgJiMxMDtRIDI1MDMgLTkxIDIxNjkgLTkxICYjMTA7USAxMzMxIC05MSA4NDIgMzk2ICYjMTA7USAzNTMgODg0IDM1MyAxNzE2ICYjMTA7USAzNTMgMjU3NSA4MTcgMzA3OSAmIzEwO1EgMTI4MSAzNTg0IDIwNjkgMzU4NCAmIzEwO1EgMjc3NSAzNTg0IDMxODYgMzEyOSAmIzEwO1EgMzU5NyAyNjc1IDM1OTcgMTg5NCAmIzEwO3omIzEwO00gMzAyMiAyMDYzICYjMTA7USAzMDE2IDI1MzQgMjc1OCAyODE1ICYjMTA7USAyNTAwIDMwOTcgMjA3NSAzMDk3ICYjMTA7USAxNTk0IDMwOTcgMTMwNSAyODI1ICYjMTA7USAxMDE2IDI1NTMgOTcyIDIwNTkgJiMxMDtMIDMwMjIgMjA2MyAmIzEwO3oiIGlkPSJEZWphVnVTYW5zLTY1Ii8+JiN4YTsgICAgICA8L2RlZnM+JiN4YTsgICAgICA8dXNlIHhsaW5rOmhyZWY9IiNEZWphVnVTYW5zLTY5Ii8+JiN4YTsgICAgICA8dXNlIHg9IjI3Ljc4MzIwMyIgeGxpbms6aHJlZj0iI0RlamFWdVNhbnMtNmUiLz4mI3hhOyAgICAgIDx1c2UgeD0iOTEuMTYyMTA5IiB4bGluazpocmVmPSIjRGVqYVZ1U2Fucy0yZCIvPiYjeGE7ICAgICAgPHVzZSB4PSIxMjcuMjQ2MDk0IiB4bGluazpocmVmPSIjRGVqYVZ1U2Fucy03MCIvPiYjeGE7ICAgICAgPHVzZSB4PSIxOTAuNzIyNjU2IiB4bGluazpocmVmPSIjRGVqYVZ1U2Fucy02OCIvPiYjeGE7ICAgICAgPHVzZSB4PSIyNTQuMTAxNTYyIiB4bGluazpocmVmPSIjRGVqYVZ1U2Fucy02MSIvPiYjeGE7ICAgICAgPHVzZSB4PSIzMTUuMzgwODU5IiB4bGluazpocmVmPSIjRGVqYVZ1U2Fucy03MyIvPiYjeGE7ICAgICAgPHVzZSB4PSIzNjcuNDgwNDY5IiB4bGluazpocmVmPSIjRGVqYVZ1U2Fucy02NSIvPiYjeGE7ICAgICA8L2c+JiN4YTsgICAgPC9nPiYjeGE7ICAgPC9nPiYjeGE7ICAgPGcgaWQ9Im1hdHBsb3RsaWIuYXhpc18yIj4mI3hhOyAgICA8ZyBpZD0idGV4dF8yIj4mI3hhOyAgICAgJiN4YTsgICAgIDxnIHRyYW5zZm9ybT0idHJhbnNsYXRlKDQ3LjE4ODQzNyAyMTMuNTE2OTA2KSByb3RhdGUoLTkwKSBzY2FsZSgwLjE0IC0wLjE0KSI+JiN4YTsgICAgICA8ZGVmcz4mI3hhOyAgICAgICA8cGF0aCB0cmFuc2Zvcm09InNjYWxlKDAuMDE1NjI1KSIgZD0iTSA5NDcgMTc0NyAmIzEwO1EgOTQ3IDExMTMgMTIwOCA3NTIgJiMxMDtRIDE0NjkgMzkxIDE5MjUgMzkxICYjMTA7USAyMzgxIDM5MSAyNjQzIDc1MiAmIzEwO1EgMjkwNiAxMTEzIDI5MDYgMTc0NyAmIzEwO1EgMjkwNiAyMzgxIDI2NDMgMjc0MiAmIzEwO1EgMjM4MSAzMTAzIDE5MjUgMzEwMyAmIzEwO1EgMTQ2OSAzMTAzIDEyMDggMjc0MiAmIzEwO1EgOTQ3IDIzODEgOTQ3IDE3NDcgJiMxMDt6JiMxMDtNIDI5MDYgNTI1ICYjMTA7USAyNzI1IDIxMyAyNDQ4IDYxICYjMTA7USAyMTcyIC05MSAxNzg0IC05MSAmIzEwO1EgMTE1MCAtOTEgNzUxIDQxNSAmIzEwO1EgMzUzIDkyMiAzNTMgMTc0NyAmIzEwO1EgMzUzIDI1NzIgNzUxIDMwNzggJiMxMDtRIDExNTAgMzU4NCAxNzg0IDM1ODQgJiMxMDtRIDIxNzIgMzU4NCAyNDQ4IDM0MzIgJiMxMDtRIDI3MjUgMzI4MSAyOTA2IDI5NjkgJiMxMDtMIDI5MDYgMzUwMCAmIzEwO0wgMzQ4MSAzNTAwICYjMTA7TCAzNDgxIC0xMzMxICYjMTA7TCAyOTA2IC0xMzMxICYjMTA7TCAyOTA2IDUyNSAmIzEwO3oiIGlkPSJEZWphVnVTYW5zLTcxIi8+JiN4YTsgICAgICAgPHBhdGggdHJhbnNmb3JtPSJzY2FsZSgwLjAxNTYyNSkiIGQ9Ik0gNTQ0IDEzODEgJiMxMDtMIDU0NCAzNTAwICYjMTA7TCAxMTE5IDM1MDAgJiMxMDtMIDExMTkgMTQwMyAmIzEwO1EgMTExOSA5MDYgMTMxMiA2NTcgJiMxMDtRIDE1MDYgNDA5IDE4OTQgNDA5ICYjMTA7USAyMzU5IDQwOSAyNjI5IDcwNiAmIzEwO1EgMjkwMCAxMDAzIDI5MDAgMTUxNiAmIzEwO0wgMjkwMCAzNTAwICYjMTA7TCAzNDc1IDM1MDAgJiMxMDtMIDM0NzUgMCAmIzEwO0wgMjkwMCAwICYjMTA7TCAyOTAwIDUzOCAmIzEwO1EgMjY5MSAyMTkgMjQxNCA2NCAmIzEwO1EgMjEzOCAtOTEgMTc3MiAtOTEgJiMxMDtRIDExNjkgLTkxIDg1NiAyODQgJiMxMDtRIDU0NCA2NTkgNTQ0IDEzODEgJiMxMDt6JiMxMDtNIDE5OTEgMzU4NCAmIzEwO0wgMTk5MSAzNTg0ICYjMTA7eiIgaWQ9IkRlamFWdVNhbnMtNzUiLz4mI3hhOyAgICAgICA8cGF0aCB0cmFuc2Zvcm09InNjYWxlKDAuMDE1NjI1KSIgZD0iTSAyOTA2IDI5NjkgJiMxMDtMIDI5MDYgNDg2MyAmIzEwO0wgMzQ4MSA0ODYzICYjMTA7TCAzNDgxIDAgJiMxMDtMIDI5MDYgMCAmIzEwO0wgMjkwNiA1MjUgJiMxMDtRIDI3MjUgMjEzIDI0NDggNjEgJiMxMDtRIDIxNzIgLTkxIDE3ODQgLTkxICYjMTA7USAxMTUwIC05MSA3NTEgNDE1ICYjMTA7USAzNTMgOTIyIDM1MyAxNzQ3ICYjMTA7USAzNTMgMjU3MiA3NTEgMzA3OCAmIzEwO1EgMTE1MCAzNTg0IDE3ODQgMzU4NCAmIzEwO1EgMjE3MiAzNTg0IDI0NDggMzQzMiAmIzEwO1EgMjcyNSAzMjgxIDI5MDYgMjk2OSAmIzEwO3omIzEwO00gOTQ3IDE3NDcgJiMxMDtRIDk0NyAxMTEzIDEyMDggNzUyICYjMTA7USAxNDY5IDM5MSAxOTI1IDM5MSAmIzEwO1EgMjM4MSAzOTEgMjY0MyA3NTIgJiMxMDtRIDI5MDYgMTExMyAyOTA2IDE3NDcgJiMxMDtRIDI5MDYgMjM4MSAyNjQzIDI3NDIgJiMxMDtRIDIzODEgMzEwMyAxOTI1IDMxMDMgJiMxMDtRIDE0NjkgMzEwMyAxMjA4IDI3NDIgJiMxMDtRIDk0NyAyMzgxIDk0NyAxNzQ3ICYjMTA7eiIgaWQ9IkRlamFWdVNhbnMtNjQiLz4mI3hhOyAgICAgICA8cGF0aCB0cmFuc2Zvcm09InNjYWxlKDAuMDE1NjI1KSIgZD0iTSAyNjMxIDI5NjMgJiMxMDtRIDI1MzQgMzAxOSAyNDIwIDMwNDUgJiMxMDtRIDIzMDYgMzA3MiAyMTY5IDMwNzIgJiMxMDtRIDE2ODEgMzA3MiAxNDIwIDI3NTUgJiMxMDtRIDExNTkgMjQzOCAxMTU5IDE4NDQgJiMxMDtMIDExNTkgMCAmIzEwO0wgNTgxIDAgJiMxMDtMIDU4MSAzNTAwICYjMTA7TCAxMTU5IDM1MDAgJiMxMDtMIDExNTkgMjk1NiAmIzEwO1EgMTM0MSAzMjc1IDE2MzEgMzQyOSAmIzEwO1EgMTkyMiAzNTg0IDIzMzggMzU4NCAmIzEwO1EgMjM5NyAzNTg0IDI0NjkgMzU3NiAmIzEwO1EgMjU0MSAzNTY5IDI2MjggMzU1MyAmIzEwO0wgMjYzMSAyOTYzICYjMTA7eiIgaWQ9IkRlamFWdVNhbnMtNzIiLz4mI3hhOyAgICAgICA8cGF0aCB0cmFuc2Zvcm09InNjYWxlKDAuMDE1NjI1KSIgZD0iTSAxMTcyIDQ0OTQgJiMxMDtMIDExNzIgMzUwMCAmIzEwO0wgMjM1NiAzNTAwICYjMTA7TCAyMzU2IDMwNTMgJiMxMDtMIDExNzIgMzA1MyAmIzEwO0wgMTE3MiAxMTUzICYjMTA7USAxMTcyIDcyNSAxMjg5IDYwMyAmIzEwO1EgMTQwNiA0ODEgMTc2NiA0ODEgJiMxMDtMIDIzNTYgNDgxICYjMTA7TCAyMzU2IDAgJiMxMDtMIDE3NjYgMCAmIzEwO1EgMTEwMCAwIDg0NyAyNDggJiMxMDtRIDU5NCA0OTcgNTk0IDExNTMgJiMxMDtMIDU5NCAzMDUzICYjMTA7TCAxNzIgMzA1MyAmIzEwO0wgMTcyIDM1MDAgJiMxMDtMIDU5NCAzNTAwICYjMTA7TCA1OTQgNDQ5NCAmIzEwO0wgMTE3MiA0NDk0ICYjMTA7eiIgaWQ9IkRlamFWdVNhbnMtNzQiLz4mI3hhOyAgICAgIDwvZGVmcz4mI3hhOyAgICAgIDx1c2UgeGxpbms6aHJlZj0iI0RlamFWdVNhbnMtNzEiLz4mI3hhOyAgICAgIDx1c2UgeD0iNjMuNDc2NTYyIiB4bGluazpocmVmPSIjRGVqYVZ1U2Fucy03NSIvPiYjeGE7ICAgICAgPHVzZSB4PSIxMjYuODU1NDY5IiB4bGluazpocmVmPSIjRGVqYVZ1U2Fucy02MSIvPiYjeGE7ICAgICAgPHVzZSB4PSIxODguMTM0NzY2IiB4bGluazpocmVmPSIjRGVqYVZ1U2Fucy02NCIvPiYjeGE7ICAgICAgPHVzZSB4PSIyNTEuNjExMzI4IiB4bGluazpocmVmPSIjRGVqYVZ1U2Fucy03MiIvPiYjeGE7ICAgICAgPHVzZSB4PSIyOTIuNzI0NjA5IiB4bGluazpocmVmPSIjRGVqYVZ1U2Fucy02MSIvPiYjeGE7ICAgICAgPHVzZSB4PSIzNTQuMDAzOTA2IiB4bGluazpocmVmPSIjRGVqYVZ1U2Fucy03NCIvPiYjeGE7ICAgICAgPHVzZSB4PSIzOTMuMjEyODkxIiB4bGluazpocmVmPSIjRGVqYVZ1U2Fucy03NSIvPiYjeGE7ICAgICAgPHVzZSB4PSI0NTYuNTkxNzk3IiB4bGluazpocmVmPSIjRGVqYVZ1U2Fucy03MiIvPiYjeGE7ICAgICAgPHVzZSB4PSI0OTUuNDU1MDc4IiB4bGluazpocmVmPSIjRGVqYVZ1U2Fucy02NSIvPiYjeGE7ICAgICA8L2c+JiN4YTsgICAgPC9nPiYjeGE7ICAgPC9nPiYjeGE7ICAgPGcgaWQ9ImxpbmUyZF8xIj4mI3hhOyAgICA8cGF0aCBzdHlsZT0iZmlsbDogbm9uZTsgc3Ryb2tlOiAjZmYwMDAwOyBzdHJva2Utd2lkdGg6IDEuNTsgc3Ryb2tlLWxpbmVjYXA6IHNxdWFyZSIgY2xpcC1wYXRoPSJ1cmwoI3BiYzg3ZTQ3NzNkKSIgZD0iTSA3My44MzI3MjcgMjI3LjAyNzczNCAmIzEwO0wgNzYuMzg5MDYyIDIxOC42NTEzOTQgJiMxMDtMIDgxLjUwMTczMiAyMDAuMTQxNzcyICYjMTA7TCA4Ni42MTQ0MDIgMTgxLjA2OTM0MSAmIzEwO0wgODkuMTcwNzM3IDE3Mi4wMzQwMjUgJiMxMDtMIDkxLjcyNzA3MiAxNjQuMzg3NTkxICYjMTA7TCA5NC4yODM0MDcgMTU4LjI4OTYwNiAmIzEwO0wgOTYuODM5NzQyIDE1NC40MTQ0NTkgJiMxMDtMIDk5LjM5NjA3NyAxNTQuMTQ0OTg1ICYjMTA7TCAxMDEuOTUyNDEyIDE1Ny4wMjAwNjggJiMxMDtMIDEwNC41MDg3NDcgMTYzLjMwNzM2NCAmIzEwO0wgMTA3LjA2NTA4MiAxNzMuNTcyNDQ3ICYjMTA7TCAxMDkuNjIxNDE3IDE4NS43MDM3MjQgJiMxMDtMIDExMi4xNzc3NTIgMjAwLjMwMjg2NSAmIzEwO0wgMTE3LjI5MDQyMiAyMzAuNzU1NDUyICYjMTA7TCAxMTkuODQ2NzU3IDI0NC4yNjI2NTMgJiMxMDtMIDEyMi40MDMwOTIgMjU1LjIxODY0ICYjMTA7TCAxMjQuOTU5NDI3IDI2My4wNDMxMzUgJiMxMDtMIDEyNy41MTU3NjIgMjY3LjI2NDYwMiAmIzEwO0wgMTMwLjA3MjA5NyAyNjcuMjI3MTUyICYjMTA7TCAxMzIuNjI4NDMyIDI2My4wNjM5NzIgJiMxMDtMIDEzNS4xODQ3NjcgMjU0LjExNDk5MiAmIzEwO0wgMTM3Ljc0MTEwMiAyNDAuNzM2NjcxICYjMTA7TCAxNDAuMjk3NDM3IDIyMy40MjE0MDEgJiMxMDtMIDE0Mi44NTM3NzIgMjAyLjg4NjUyMSAmIzEwO0wgMTQ3Ljk2NjQ0MiAxNTUuNjY3NzcgJiMxMDtMIDE1MC41MjI3NzcgMTMyLjA2Mjc2NSAmIzEwO0wgMTUzLjA3OTExMiAxMTAuOTE2NjYyICYjMTA7TCAxNTUuNjM1NDQ3IDk0LjA1ODQxOCAmIzEwO0wgMTU4LjE5MTc4MiA4Mi45NjM3ODcgJiMxMDtMIDE2MC43NDgxMTcgNzkuMzc1Nzk1ICYjMTA7TCAxNjMuMzA0NDUyIDgzLjE4NDIzNSAmIzEwO0wgMTY1Ljg2MDc4NyA5NC40MTA0NDggJiMxMDtMIDE2OC40MTcxMjIgMTExLjQ1MzE5OCAmIzEwO0wgMTcwLjk3MzQ1NyAxMzMuNzI2NTYyICYjMTA7TCAxNzYuMDg2MTI3IDE4Mi4zMTg4NDggJiMxMDtMIDE3OC42NDI0NjIgMjA0LjA0NDYxOSAmIzEwO0wgMTgxLjE5ODc5NyAyMjEuNDY0MjMgJiMxMDtMIDE4My43NTUxMzIgMjMzLjA0MjI1MSAmIzEwO0wgMTg2LjMxMTQ2NyAyMzguODYxMDg5ICYjMTA7TCAxODguODY3ODAyIDIzOS4yMTQ4MDQgJiMxMDtMIDE5MS40MjQxMzcgMjM1LjQwMDc5OSAmIzEwO0wgMTkzLjk4MDQ3MiAyMjguMzA5MjA1ICYjMTA7TCAxOTYuNTM2ODA3IDIyMC4wMDcwNTMgJiMxMDtMIDE5OS4wOTMxNDIgMjEyLjE4NDgxMSAmIzEwO0wgMjAxLjY0OTQ3NyAyMDUuMzkzMDIyICYjMTA7TCAyMDQuMjA1ODEyIDIwMC44OTM3OTggJiMxMDtMIDIwNi43NjIxNDcgMTk3LjUyNzU1OSAmIzEwO0wgMjA5LjMxODQ4MiAxOTUuOTM2MjA4ICYjMTA7TCAyMTEuODc0ODE3IDE5NC42MTM5NzMgJiMxMDtMIDIxNC40MzExNTIgMTkyLjc4NjE3MiAmIzEwO0wgMjE2Ljk4NzQ4NyAxODkuNjE1ODQ3ICYjMTA7TCAyMTkuNTQzODIyIDE4NC4zMzY2ODQgJiMxMDtMIDIyMi4xMDAxNTcgMTc2Ljk3OTAzOCAmIzEwO0wgMjI0LjY1NjQ5MiAxNjcuNTA5MzU2ICYjMTA7TCAyMzIuMzI1NDk3IDEzNS4xOTg0OCAmIzEwO0wgMjM0Ljg4MTgzMiAxMjYuMzg4MzAxICYjMTA7TCAyMzcuNDM4MTY4IDEyMC4wNTEyNzQgJiMxMDtMIDIzOS45OTQ1MDMgMTE3LjEwMDA0NSAmIzEwO0wgMjQyLjU1MDgzOCAxMTcuMzQwMTUxICYjMTA7TCAyNDUuMTA3MTczIDEyMC43ODk1MDIgJiMxMDtMIDI0Ny42NjM1MDggMTI3LjEyNTQ0MiAmIzEwO0wgMjUwLjIxOTg0MyAxMzUuNDA5MDU5ICYjMTA7TCAyNTUuMzMyNTEzIDE1NC4zODUxMTIgJiMxMDtMIDI1Ny44ODg4NDggMTYyLjk1MjkwNSAmIzEwO0wgMjYwLjQ0NTE4MyAxNjkuOTkxODkxICYjMTA7TCAyNjMuMDAxNTE4IDE3My45MzgxICYjMTA7TCAyNjUuNTU3ODUzIDE3NS40MjYxNjYgJiMxMDtMIDI2OC4xMTQxODggMTczLjg2NzkxOSAmIzEwO0wgMjcwLjY3MDUyMyAxNjkuODUzNDgyICYjMTA7TCAyNzMuMjI2ODU4IDE2My45NDIxMiAmIzEwO0wgMjc1Ljc4MzE5MyAxNTYuOTI5Mjg1ICYjMTA7TCAyNzguMzM5NTI4IDE1MC43MjQyMDIgJiMxMDtMIDI4MC44OTU4NjMgMTQ1LjY1NDkyOCAmIzEwO0wgMjgzLjQ1MjE5OCAxNDIuNDkzMTc5ICYjMTA7TCAyODYuMDA4NTMzIDE0Mi40ODY4MjEgJiMxMDtMIDI4OC41NjQ4NjggMTQ1LjE4MjgwNSAmIzEwO0wgMjkxLjEyMTIwMyAxNTAuNDcwMzI4ICYjMTA7TCAyOTguNzkwMjA4IDE3MS4zMTgxOTggJiMxMDtMIDMwMS4zNDY1NDMgMTc1LjMyNzgwOSAmIzEwO0wgMzAzLjkwMjg3OCAxNzYuMzEyNDE5ICYjMTA7TCAzMDYuNDU5MjEzIDE3My4xMzQ5NDggJiMxMDtMIDMwOS4wMTU1NDggMTY2LjEwNTExNiAmIzEwO0wgMzExLjU3MTg4MyAxNTUuNzA3NTMyICYjMTA7TCAzMTQuMTI4MjE4IDE0My4zNzU1NTggJiMxMDtMIDMxNi42ODQ1NTMgMTMwLjA1NDM4NiAmIzEwO0wgMzE5LjI0MDg4OCAxMTguNzYxOTY2ICYjMTA7TCAzMjEuNzk3MjIzIDEwOS43ODg4ODIgJiMxMDtMIDMyNC4zNTM1NTggMTA2LjAzMDU1MSAmIzEwO0wgMzI2LjkwOTg5MyAxMDcuMzU5MjM1ICYjMTA7TCAzMjkuNDY2MjI4IDExNC4xMTE2MzYgJiMxMDtMIDMzMi4wMjI1NjMgMTI1Ljk0MzM4ICYjMTA7TCAzMzQuNTc4ODk4IDE0MS43MjE4MzkgJiMxMDtMIDM0Mi4yNDc5MDMgMTk2LjIxODUwMSAmIzEwO0wgMzQ0LjgwNDIzOCAyMTEuMTAwMTkgJiMxMDtMIDM0Ny4zNjA1NzMgMjIxLjkxNjQyMSAmIzEwO0wgMzQ5LjkxNjkwOCAyMjguMzU1ODQ1ICYjMTA7TCAzNTIuNDczMjQzIDIzMC43OTMyNDkgJiMxMDtMIDM1NS4wMjk1NzggMjI4Ljk3NDA0NyAmIzEwO0wgMzU3LjU4NTkxMyAyMjQuOTk3NzE1ICYjMTA7TCAzNjAuMTQyMjQ4IDIxOS41NjYxOTIgJiMxMDtMIDM2Mi42OTg1ODMgMjEzLjc5MDQwNCAmIzEwO0wgMzY1LjI1NDkxOCAyMDkuMjQwMjI4ICYjMTA7TCAzNjcuODExMjUzIDIwNi41MjQ1MzcgJiMxMDtMIDM3MC4zNjc1ODggMjA1LjgyMzY3OCAmIzEwO0wgMzcyLjkyMzkyMyAyMDYuODA2MzM3ICYjMTA7TCAzNzUuNDgwMjU4IDIwOC45MjIzMTkgJiMxMDtMIDM3OC4wMzY1OTMgMjExLjQ5MTY2NSAmIzEwO0wgMzgwLjU5MjkyOCAyMTMuMTg1MTcyICYjMTA7TCAzODMuMTQ5MjYzIDIxMy4xNzMzNDQgJiMxMDtMIDM4NS43MDU1OTggMjEwLjk2MjQwNSAmIzEwO0wgMzg4LjI2MTkzMyAyMDYuMzg3ODAyICYjMTA7TCAzOTAuODE4MjY4IDE5OS42NDQ4NTkgJiMxMDtMIDM5My4zNzQ2MDMgMTkxLjI3MDIyOSAmIzEwO0wgMzk1LjkzMDkzOCAxODIuMTM5NTQ5ICYjMTA7TCAzOTguNDg3MjczIDE3My44ODY4NjEgJiMxMDtMIDM5OC40ODcyNzMgMTczLjg4Njg2MSIvPiYjeGE7ICAgPC9nPiYjeGE7ICAgPGcgaWQ9ImxpbmUyZF8yIj4mI3hhOyAgICA8cGF0aCBzdHlsZT0iZmlsbDogbm9uZTsgc3Ryb2tlOiAjMDAwMGZmOyBzdHJva2Utd2lkdGg6IDEuNTsgc3Ryb2tlLWxpbmVjYXA6IHNxdWFyZSIgY2xpcC1wYXRoPSJ1cmwoI3BiYzg3ZTQ3NzNkKSIgZD0iTSA3My44MzI3MjcgOTkuMTQ3ODAzICYjMTA7TCA3Ni4zODkwNjIgOTIuNDkwMDExICYjMTA7TCA3OC45NDUzOTcgOTMuMzEyNzc3ICYjMTA7TCA4MS41MDE3MzIgMTAyLjc2MDE4MSAmIzEwO0wgODQuMDU4MDY3IDEyMC4xNDE5MTggJiMxMDtMIDg2LjYxNDQwMiAxNDQuNTUxMTkgJiMxMDtMIDkxLjcyNzA3MiAyMDAuMzgzMTE0ICYjMTA7TCA5NC4yODM0MDcgMjI0Ljk1OTkzNCAmIzEwO0wgOTYuODM5NzQyIDI0Mi4xMTYzOTcgJiMxMDtMIDk5LjM5NjA3NyAyNTAuMTYxNTU5ICYjMTA7TCAxMDEuOTUyNDEyIDI0Ni43Mzg5MDQgJiMxMDtMIDEwNC41MDg3NDcgMjMzLjk3MzEwOCAmIzEwO0wgMTA3LjA2NTA4MiAyMTIuNTA4MDg2ICYjMTA7TCAxMTQuNzM0MDg3IDEzMi42NTU3NjQgJiMxMDtMIDExNy4yOTA0MjIgMTE0LjExNTc4NyAmIzEwO0wgMTE5Ljg0Njc1NyAxMDQuMzUzMjk3ICYjMTA7TCAxMjIuNDAzMDkyIDEwNC43ODMxMTQgJiMxMDtMIDEyNC45NTk0MjcgMTE0LjEzMTQ0NyAmIzEwO0wgMTI3LjUxNTc2MiAxMzEuODE0NTg1ICYjMTA7TCAxMzAuMDcyMDk3IDE1NC4xMjMyNjEgJiMxMDtMIDEzMi42Mjg0MzIgMTc4LjEyODI4OSAmIzEwO0wgMTM1LjE4NDc2NyAyMDAuMDcxMDI5ICYjMTA7TCAxMzcuNzQxMTAyIDIxNy4wMDExMjMgJiMxMDtMIDE0MC4yOTc0MzcgMjI2Ljk5NTkzOCAmIzEwO0wgMTQyLjg1Mzc3MiAyMjkuMDY1OTA2ICYjMTA7TCAxNDUuNDEwMTA3IDIyMy42OTE3MzMgJiMxMDtMIDE0Ny45NjY0NDIgMjEyLjQ0Mjc5MyAmIzEwO0wgMTUwLjUyMjc3NyAxOTcuMTcxMzI1ICYjMTA7TCAxNTMuMDc5MTEyIDE4MC40NTIwNDUgJiMxMDtMIDE1NS42MzU0NDcgMTY0Ljc2MzU1MSAmIzEwO0wgMTU4LjE5MTc4MiAxNTIuNDg2NTQxICYjMTA7TCAxNjAuNzQ4MTE3IDE0NC45NjE4ODUgJiMxMDtMIDE2My4zMDQ0NTIgMTQyLjczNDM0NyAmIzEwO0wgMTY1Ljg2MDc4NyAxNDUuOTAxOTE4ICYjMTA7TCAxNjguNDE3MTIyIDE1My42OTgzNiAmIzEwO0wgMTcwLjk3MzQ1NyAxNjQuNjUzMjY2ICYjMTA7TCAxNzYuMDg2MTI3IDE4OS43Mjk3NjQgJiMxMDtMIDE3OC42NDI0NjIgMjAxLjAyOTU3MSAmIzEwO0wgMTgxLjE5ODc5NyAyMDkuOTk4NTA0ICYjMTA7TCAxODMuNzU1MTMyIDIxNS4yMDQ3NzMgJiMxMDtMIDE4Ni4zMTE0NjcgMjE3LjYyODA4OCAmIzEwO0wgMTg4Ljg2NzgwMiAyMTcuMDAxMTYzICYjMTA7TCAxOTEuNDI0MTM3IDIxNC41ODY1ODcgJiMxMDtMIDE5My45ODA0NzIgMjExLjEyNDQzNSAmIzEwO0wgMTk2LjUzNjgwNyAyMDcuNDQxNDg3ICYjMTA7TCAxOTkuMDkzMTQyIDIwNC40NjkzMTYgJiMxMDtMIDIwMS42NDk0NzcgMjAzLjM1ODMzNCAmIzEwO0wgMjA0LjIwNTgxMiAyMDQuMDAyOTU0ICYjMTA7TCAyMDYuNzYyMTQ3IDIwNi4xMzU2ODcgJiMxMDtMIDIwOS4zMTg0ODIgMjA5LjMyNDYyNCAmIzEwO0wgMjExLjg3NDgxNyAyMTIuMjQ0MjM5ICYjMTA7TCAyMTQuNDMxMTUyIDIxMy45MDgzMTMgJiMxMDtMIDIxNi45ODc0ODcgMjEzLjAxMzU4ICYjMTA7TCAyMTkuNTQzODIyIDIwOC43NTUwNDggJiMxMDtMIDIyMi4xMDAxNTcgMjAwLjUwODY5MSAmIzEwO0wgMjI0LjY1NjQ5MiAxODguMDc1NTc4ICYjMTA7TCAyMjcuMjEyODI3IDE3Mi4wOTY0NzkgJiMxMDtMIDIyOS43NjkxNjIgMTUzLjMxNjcxNiAmIzEwO0wgMjM0Ljg4MTgzMiAxMTMuNjI3NTM5ICYjMTA7TCAyMzcuNDM4MTY4IDk1LjM4ODA3NSAmIzEwO0wgMjM5Ljk5NDUwMyA4MC40NTQ2OTggJiMxMDtMIDI0Mi41NTA4MzggNjguOTU1NTEzICYjMTA7TCAyNDUuMTA3MTczIDYxLjQ3MTkzOSAmIzEwO0wgMjQ3LjY2MzUwOCA1Ny45NjU2ODcgJiMxMDtMIDI1MC4yMTk4NDMgNTcuNTMyNzIgJiMxMDtMIDI1Mi43NzYxNzggNjAuMjI1MjYxICYjMTA7TCAyNTUuMzMyNTEzIDY0LjgzMDIzNCAmIzEwO0wgMjU3Ljg4ODg0OCA3MC41NjQ2ODQgJiMxMDtMIDI2MC40NDUxODMgNzcuNzA3MzQ0ICYjMTA7TCAyNjMuMDAxNTE4IDg1LjI0MDkyNiAmIzEwO0wgMjY1LjU1Nzg1MyA5My41NDI1MjkgJiMxMDtMIDI2OC4xMTQxODggMTAyLjI2NjI2NCAmIzEwO0wgMjczLjIyNjg1OCAxMjAuOTUxNjY4ICYjMTA7TCAyNzUuNzgzMTkzIDEyOS4zMzE4ODkgJiMxMDtMIDI3OC4zMzk1MjggMTM1Ljg3NTA1MSAmIzEwO0wgMjgwLjg5NTg2MyAxMzkuNzkyNTUxICYjMTA7TCAyODMuNDUyMTk4IDEzOS44OTI4MDcgJiMxMDtMIDI4Ni4wMDg1MzMgMTM1Ljc1NzIyNSAmIzEwO0wgMjg4LjU2NDg2OCAxMjYuNzAzMDUyICYjMTA7TCAyOTEuMTIxMjAzIDExNC4xMTI3MjIgJiMxMDtMIDI5Ni4yMzM4NzMgODYuMDI3ODE3ICYjMTA7TCAyOTguNzkwMjA4IDc1LjI4NDUyNiAmIzEwO0wgMzAxLjM0NjU0MyA2OS43OTkwNTggJiMxMDtMIDMwMy45MDI4NzggNzEuOTMyOTA5ICYjMTA7TCAzMDYuNDU5MjEzIDgyLjYwMTM0MiAmIzEwO0wgMzA5LjAxNTU0OCAxMDEuMjEyNTcxICYjMTA7TCAzMTEuNTcxODgzIDEyNi4zNzMzNzQgJiMxMDtMIDMxNi42ODQ1NTMgMTg0LjAyOTgwNCAmIzEwO0wgMzE5LjI0MDg4OCAyMDkuMTAzNjk1ICYjMTA7TCAzMjEuNzk3MjIzIDIyNi40MDIxMTcgJiMxMDtMIDMyNC4zNTM1NTggMjMzLjcyNTQ0MyAmIzEwO0wgMzI2LjkwOTg5MyAyMzAuMDkxNzk3ICYjMTA7TCAzMjkuNDY2MjI4IDIxNS4yOTAwNDIgJiMxMDtMIDMzMi4wMjI1NjMgMTkxLjgyNzYzOCAmIzEwO0wgMzM3LjEzNTIzMyAxMzQuNTkwNjkzICYjMTA7TCAzMzkuNjkxNTY4IDEwOS40Njk0NzEgJiMxMDtMIDM0Mi4yNDc5MDMgOTEuMTQ4NjUyICYjMTA7TCAzNDQuODA0MjM4IDgzLjUyMjYyOSAmIzEwO0wgMzQ3LjM2MDU3MyA4Ni4zODEyMDggJiMxMDtMIDM0OS45MTY5MDggMTAwLjA1OTQ4ICYjMTA7TCAzNTIuNDczMjQzIDEyMi4wMjU1NzYgJiMxMDtMIDM1Ny41ODU5MTMgMTc1LjczMzc4OCAmIzEwO0wgMzYwLjE0MjI0OCAxOTkuNTAzODcyICYjMTA7TCAzNjIuNjk4NTgzIDIxNi42MDgyMTEgJiMxMDtMIDM2NS4yNTQ5MTggMjI1LjIwMTE4MyAmIzEwO0wgMzY3LjgxMTI1MyAyMjQuMzAyMDQ5ICYjMTA7TCAzNzAuMzY3NTg4IDIxNC45MzE2MDMgJiMxMDtMIDM3Mi45MjM5MjMgMTk4LjM4NjYwNyAmIzEwO0wgMzc1LjQ4MDI1OCAxNzcuMzUwMzMzICYjMTA7TCAzNzguMDM2NTkzIDE1NC45NjY2OSAmIzEwO0wgMzgwLjU5MjkyOCAxMzMuNzIwOTc5ICYjMTA7TCAzODMuMTQ5MjYzIDExNS40MzQxNTggJiMxMDtMIDM4NS43MDU1OTggMTAxLjgyNTYzNyAmIzEwO0wgMzg4LjI2MTkzMyA5Mi43MjMyICYjMTA7TCAzOTAuODE4MjY4IDg3LjQ3OTU4MyAmIzEwO0wgMzkzLjM3NDYwMyA4NS43NjUwNjUgJiMxMDtMIDM5NS45MzA5MzggODYuMjEzMTkxICYjMTA7TCAzOTguNDg3MjczIDg3LjI1Mzc3MiAmIzEwO0wgMzk4LjQ4NzI3MyA4Ny4yNTM3NzIiLz4mI3hhOyAgIDwvZz4mI3hhOyAgIDxnIGlkPSJsaW5lMmRfMyI+JiN4YTsgICAgPHBhdGggc3R5bGU9ImZpbGw6IG5vbmU7IHN0cm9rZS1kYXNoYXJyYXk6IDUuNTUsMi40OyBzdHJva2UtZGFzaG9mZnNldDogMDsgc3Ryb2tlOiAjZmYwMDAwOyBzdHJva2Utd2lkdGg6IDEuNSIgY2xpcC1wYXRoPSJ1cmwoI3BiYzg3ZTQ3NzNkKSIgZD0iTSA3My44MzI3MjcgMjM5Ljk0NTQyNCAmIzEwO0wgNzYuMzg5MDYyIDIxNy4yMjUwNyAmIzEwO0wgNzguOTQ1Mzk3IDIxNy43MDU1OTMgJiMxMDtMIDgxLjUwMTczMiAyMTAuMDUzMjAzICYjMTA7TCA4NC4wNTgwNjcgMTk2LjIzMjU3NCAmIzEwO0wgODYuNjE0NDAyIDE5MC4xODgyNzYgJiMxMDtMIDg5LjE3MDczNyAxNjcuNDg5MzEgJiMxMDtMIDkxLjcyNzA3MiAxNzQuMTY0MjY3ICYjMTA7TCA5NC4yODM0MDcgMTUxLjM2NzM2OCAmIzEwO0wgOTYuODM5NzQyIDE1NC40MzYwOTkgJiMxMDtMIDk5LjM5NjA3NyAxNTYuMzU0NDggJiMxMDtMIDEwMS45NTI0MTIgMTUwLjg0OTAwNiAmIzEwO0wgMTA0LjUwODc0NyAxNTYuODkzNTkzICYjMTA7TCAxMDcuMDY1MDgyIDE2Ny42OTEzMzYgJiMxMDtMIDEwOS42MjE0MTcgMTk1LjM2NzExNCAmIzEwO0wgMTE0LjczNDA4NyAyMjguMzMxMjk4ICYjMTA7TCAxMTcuMjkwNDIyIDIzOC44MzU1MDMgJiMxMDtMIDExOS44NDY3NTcgMjQwLjM1OTg4NiAmIzEwO0wgMTIyLjQwMzA5MiAyNTQuMDU5MDY4ICYjMTA7TCAxMjQuOTU5NDI3IDI3MC4yMDA0MSAmIzEwO0wgMTI3LjUxNTc2MiAyNjIuOTM4MDk1ICYjMTA7TCAxMzAuMDcyMDk3IDI3NC42Mzg1MTIgJiMxMDtMIDEzMi42Mjg0MzIgMjcyLjkxODkxNCAmIzEwO0wgMTM1LjE4NDc2NyAyNjUuNjg5ODY1ICYjMTA7TCAxMzcuNzQxMTAyIDI1My40NjE1MyAmIzEwO0wgMTQwLjI5NzQzNyAyMTYuOTIwODg4ICYjMTA7TCAxNDIuODUzNzcyIDE5Ni4yNDUwNjIgJiMxMDtMIDE0NS40MTAxMDcgMTgyLjg4NjgxMiAmIzEwO0wgMTUwLjUyMjc3NyAxMzcuMjUyMjEyICYjMTA7TCAxNTMuMDc5MTEyIDEwOS4wOTU0ODIgJiMxMDtMIDE1NS42MzU0NDcgOTguMDA5NTIxICYjMTA7TCAxNTguMTkxNzgyIDk0LjU0MTc5OCAmIzEwO0wgMTYwLjc0ODExNyA4OC4wNTk1OTUgJiMxMDtMIDE2My4zMDQ0NTIgOTUuMjQzNDk2ICYjMTA7TCAxNjUuODYwNzg3IDk2Ljc1MzkxNSAmIzEwO0wgMTY4LjQxNzEyMiAxMjMuMjA1OTE4ICYjMTA7TCAxNzAuOTczNDU3IDEyNy44ODQ0OTggJiMxMDtMIDE3My41Mjk3OTIgMTUwLjIyOTE2NyAmIzEwO0wgMTc2LjA4NjEyNyAxODguNTc2NTA1ICYjMTA7TCAxNzguNjQyNDYyIDIwOC4xMzk0MTQgJiMxMDtMIDE4MS4xOTg3OTcgMjMzLjE0NDA5NSAmIzEwO0wgMTgzLjc1NTEzMiAyNDIuNjI0NDE1ICYjMTA7TCAxODYuMzExNDY3IDIzMS4wMTQ2MjcgJiMxMDtMIDE4OC44Njc4MDIgMjM2LjA3NzQ0NyAmIzEwO0wgMTkxLjQyNDEzNyAyNDIuODQxNDg1ICYjMTA7TCAxOTMuOTgwNDcyIDIzNS4zNjA4NTQgJiMxMDtMIDE5Ni41MzY4MDcgMjIyLjg1NjA5MyAmIzEwO0wgMTk5LjA5MzE0MiAyMDUuMTI5NDQ2ICYjMTA7TCAyMDEuNjQ5NDc3IDIxNC45MDU3MjcgJiMxMDtMIDIwNC4yMDU4MTIgMjA4LjA4MjExNiAmIzEwO0wgMjA2Ljc2MjE0NyAyMDMuOTk3MTc0ICYjMTA7TCAyMDkuMzE4NDgyIDE5Ny41MDY0OTggJiMxMDtMIDIxMS44NzQ4MTcgMTk1LjIzNDI0MSAmIzEwO0wgMjE0LjQzMTE1MiAxOTcuMjA3NzY4ICYjMTA7TCAyMTYuOTg3NDg3IDE4My43MjQ5MjcgJiMxMDtMIDIxOS41NDM4MjIgMTg0LjA3NDM3OCAmIzEwO0wgMjIyLjEwMDE1NyAxNzUuMDQzMDI3ICYjMTA7TCAyMjQuNjU2NDkyIDE2NC4wMDUyNTkgJiMxMDtMIDIyNy4yMTI4MjcgMTU2LjQ0Mzc3MiAmIzEwO0wgMjI5Ljc2OTE2MiAxMzcuNjIyNzE5ICYjMTA7TCAyMzIuMzI1NDk3IDEzMS4yMzIwMzQgJiMxMDtMIDIzNy40MzgxNjggMTIxLjYzNDU0NSAmIzEwO0wgMjM5Ljk5NDUwMyAxMjguMDQ5Mzk5ICYjMTA7TCAyNDIuNTUwODM4IDEyMC4xMzk0NDEgJiMxMDtMIDI0NS4xMDcxNzMgMTI3LjY5MTE4MyAmIzEwO0wgMjQ3LjY2MzUwOCAxMzguNjk5MDAzICYjMTA7TCAyNTAuMjE5ODQzIDE0NC42MjgzNjUgJiMxMDtMIDI1Mi43NzYxNzggMTQ0LjIwNjk3NSAmIzEwO0wgMjU1LjMzMjUxMyAxNjMuNTcwNDA0ICYjMTA7TCAyNTcuODg4ODQ4IDE2OS41OTM1OTcgJiMxMDtMIDI2MC40NDUxODMgMTgyLjMyNTgxMiAmIzEwO0wgMjYzLjAwMTUxOCAxNjYuNDQxMDE3ICYjMTA7TCAyNjUuNTU3ODUzIDE4My42OTk0ODIgJiMxMDtMIDI2OC4xMTQxODggMTc2LjgxODYyNyAmIzEwO0wgMjcwLjY3MDUyMyAxNzguNzU0MzYgJiMxMDtMIDI3My4yMjY4NTggMTU2LjQ1NjQ5MSAmIzEwO0wgMjc1Ljc4MzE5MyAxNDguNDM4NjkzICYjMTA7TCAyNzguMzM5NTI4IDE0Ni40MTg2MSAmIzEwO0wgMjgwLjg5NTg2MyAxMzcuNDQwNjM0ICYjMTA7TCAyODMuNDUyMTk4IDE0MS40MDA0MTEgJiMxMDtMIDI4Ni4wMDg1MzMgMTU0Ljg5ODU4MyAmIzEwO0wgMjg4LjU2NDg2OCAxNTQuODMwNDMyICYjMTA7TCAyOTEuMTIxMjAzIDE2Mi40ODAzNzUgJiMxMDtMIDI5My42Nzc1MzggMTU3LjEzMzQ3NyAmIzEwO0wgMjk2LjIzMzg3MyAxNjcuMTc4ODMzICYjMTA7TCAyOTguNzkwMjA4IDE4NC4wNTc5NzQgJiMxMDtMIDMwMS4zNDY1NDMgMTg2LjAxNDk5NSAmIzEwO0wgMzAzLjkwMjg3OCAxODQuNzI2MjI5ICYjMTA7TCAzMDYuNDU5MjEzIDE3OS45OTIzOTYgJiMxMDtMIDMwOS4wMTU1NDggMTU4LjQ5ODk5OCAmIzEwO0wgMzExLjU3MTg4MyAxNTkuMzYwMzU4ICYjMTA7TCAzMTQuMTI4MjE4IDE0MS44MjA5NSAmIzEwO0wgMzE2LjY4NDU1MyAxMzAuMDc5MTI3ICYjMTA7TCAzMTkuMjQwODg4IDEyOC4wNzQ2MDEgJiMxMDtMIDMyMS43OTcyMjMgMTE4LjI4OTQ0MiAmIzEwO0wgMzI0LjM1MzU1OCAxMDIuNzA3NzY4ICYjMTA7TCAzMjYuOTA5ODkzIDExNS41NTczMTQgJiMxMDtMIDMyOS40NjYyMjggMTI0LjQwNjcxNSAmIzEwO0wgMzMyLjAyMjU2MyAxMzIuMTIxOTYgJiMxMDtMIDMzNC41Nzg4OTggMTQ1LjY4NDc0OSAmIzEwO0wgMzM3LjEzNTIzMyAxNzIuODM5Njk4ICYjMTA7TCAzMzkuNjkxNTY4IDE3Ni4wOTAwODEgJiMxMDtMIDM0Mi4yNDc5MDMgMjAxLjEwNTM3ICYjMTA7TCAzNDQuODA0MjM4IDIyMi4yNDQ2MDMgJiMxMDtMIDM0Ny4zNjA1NzMgMjI4Ljg3NzExNiAmIzEwO0wgMzQ5LjkxNjkwOCAyMzcuNjkwNTUyICYjMTA7TCAzNTIuNDczMjQzIDIzNS43NDQyNDUgJiMxMDtMIDM1NS4wMjk1NzggMjQwLjE4MjA2MiAmIzEwO0wgMzU3LjU4NTkxMyAyMTYuNjcyMTc4ICYjMTA7TCAzNjAuMTQyMjQ4IDIyNi45MzIzNjcgJiMxMDtMIDM2Mi42OTg1ODMgMjIzLjk2MjIzMiAmIzEwO0wgMzY1LjI1NDkxOCAyMDEuNTI1MjA1ICYjMTA7TCAzNjcuODExMjUzIDIwOC4wNDAxOTQgJiMxMDtMIDM3MC4zNjc1ODggMjA5LjUyNTU4ICYjMTA7TCAzNzIuOTIzOTIzIDIwNC43MzA2NzUgJiMxMDtMIDM3NS40ODAyNTggMjE2LjkxMzgzOSAmIzEwO0wgMzc4LjAzNjU5MyAyMTkuMzkxNzQ5ICYjMTA7TCAzODAuNTkyOTI4IDIyMy45MjgyMDIgJiMxMDtMIDM4My4xNDkyNjMgMjEyLjY1OTI0MSAmIzEwO0wgMzg1LjcwNTU5OCAyMDUuMDUwODYgJiMxMDtMIDM4OC4yNjE5MzMgMjE2LjgzMDYxNSAmIzEwO0wgMzkwLjgxODI2OCAyMDYuNjM1OTU1ICYjMTA7TCAzOTMuMzc0NjAzIDE5MS45MjM1MjkgJiMxMDtMIDM5NS45MzA5MzggMTgxLjQ1OTMyNCAmIzEwO0wgMzk4LjQ4NzI3MyAxNzQuNzQ0MzQ1ICYjMTA7TCAzOTguNDg3MjczIDE3NC43NDQzNDUiLz4mI3hhOyAgIDwvZz4mI3hhOyAgIDxnIGlkPSJsaW5lMmRfNCI+JiN4YTsgICAgPHBhdGggc3R5bGU9ImZpbGw6IG5vbmU7IHN0cm9rZS1kYXNoYXJyYXk6IDUuNTUsMi40OyBzdHJva2UtZGFzaG9mZnNldDogMDsgc3Ryb2tlOiAjMDAwMGZmOyBzdHJva2Utd2lkdGg6IDEuNSIgY2xpcC1wYXRoPSJ1cmwoI3BiYzg3ZTQ3NzNkKSIgZD0iTSA3My44MzI3MjcgOTUuMjk5MDI4ICYjMTA7TCA3Ni4zODkwNjIgOTQuMzEyNTA3ICYjMTA7TCA3OC45NDUzOTcgOTAuNjk5MjQxICYjMTA7TCA4MS41MDE3MzIgOTcuNjI2MDA3ICYjMTA7TCA4NC4wNTgwNjcgMTEzLjcwNTYxICYjMTA7TCA4Ni42MTQ0MDIgMTQ1LjU5ODYwOCAmIzEwO0wgODkuMTcwNzM3IDE2NS41ODQzMDQgJiMxMDtMIDk0LjI4MzQwNyAyMjEuMTcyODI5ICYjMTA7TCA5Ni44Mzk3NDIgMjQxLjQ4OTM4MiAmIzEwO0wgOTkuMzk2MDc3IDI0NC4yOTM0MjggJiMxMDtMIDEwMS45NTI0MTIgMjUwLjQ4NDE2MSAmIzEwO0wgMTA0LjUwODc0NyAyMzEuNjYxNjYxICYjMTA7TCAxMDcuMDY1MDgyIDIwMC41NzA3NTIgJiMxMDtMIDEwOS42MjE0MTcgMTg0LjU4MzY5NCAmIzEwO0wgMTEyLjE3Nzc1MiAxNDUuNjY2MzgxICYjMTA7TCAxMTQuNzM0MDg3IDEyOC43ODM2NjggJiMxMDtMIDExNy4yOTA0MjIgMTE1LjcwMzIwOSAmIzEwO0wgMTE5Ljg0Njc1NyA5OC44MTQ1ODIgJiMxMDtMIDEyMi40MDMwOTIgOTQuOTU0OTMgJiMxMDtMIDEyNC45NTk0MjcgMTIyLjMyNTk3OSAmIzEwO0wgMTI3LjUxNTc2MiAxMzYuMTcxODM2ICYjMTA7TCAxMzAuMDcyMDk3IDE0Ny42NTc0OTMgJiMxMDtMIDEzMi42Mjg0MzIgMTc3LjgyNDM5NSAmIzEwO0wgMTM1LjE4NDc2NyAyMDUuMzk1NDQxICYjMTA7TCAxMzcuNzQxMTAyIDIxOC4zMzg2NTMgJiMxMDtMIDE0MC4yOTc0MzcgMjI4LjIxMjE5NSAmIzEwO0wgMTQyLjg1Mzc3MiAyMjUuNDk4NTc5ICYjMTA7TCAxNDUuNDEwMTA3IDIyMS41NTI1MzkgJiMxMDtMIDE0Ny45NjY0NDIgMjAxLjk3NjIyMiAmIzEwO0wgMTUwLjUyMjc3NyAxOTAuMzUzODM5ICYjMTA7TCAxNTMuMDc5MTEyIDE3Ny44ODIyNzEgJiMxMDtMIDE1NS42MzU0NDcgMTU0LjAzMzc2ICYjMTA7TCAxNTguMTkxNzgyIDE1Ny4zMjUzNzMgJiMxMDtMIDE2MC43NDgxMTcgMTQxLjQzNjg0NiAmIzEwO0wgMTYzLjMwNDQ1MiAxNDQuNzAwNDA4ICYjMTA7TCAxNjUuODYwNzg3IDE0MC43Mzg0MTMgJiMxMDtMIDE2OC40MTcxMjIgMTQ5Ljc4MzAwNyAmIzEwO0wgMTcwLjk3MzQ1NyAxNzIuMTkwMDc1ICYjMTA7TCAxNzMuNTI5NzkyIDE3OS4wMjA1ICYjMTA7TCAxNzYuMDg2MTI3IDE4Mi4wNTk1ODkgJiMxMDtMIDE3OC42NDI0NjIgMTkyLjM5MzcxMSAmIzEwO0wgMTgxLjE5ODc5NyAyMDguOTk3MzY3ICYjMTA7TCAxODMuNzU1MTMyIDIwOS4zNDczMiAmIzEwO0wgMTg2LjMxMTQ2NyAyMTguNzYyNjUyICYjMTA7TCAxODguODY3ODAyIDIxNi45MTgzNiAmIzEwO0wgMTkxLjQyNDEzNyAyMTIuNDE5NDIgJiMxMDtMIDE5My45ODA0NzIgMjExLjY0NjYxNSAmIzEwO0wgMTk2LjUzNjgwNyAyMTUuNTQ0NDk4ICYjMTA7TCAxOTkuMDkzMTQyIDIwMC4wMDg1NTYgJiMxMDtMIDIwMS42NDk0NzcgMjExLjMwMjc1MiAmIzEwO0wgMjA0LjIwNTgxMiAyMDIuOTc1NjQ3ICYjMTA7TCAyMDYuNzYyMTQ3IDE5Ni41OTIyMzYgJiMxMDtMIDIwOS4zMTg0ODIgMjAyLjU3ODc1OCAmIzEwO0wgMjExLjg3NDgxNyAyMDMuNzc4Mjk4ICYjMTA7TCAyMTQuNDMxMTUyIDIwMS44NTkzNzcgJiMxMDtMIDIxNi45ODc0ODcgMjAwLjE0NzcyICYjMTA7TCAyMTkuNTQzODIyIDIwOS42NTA2MSAmIzEwO0wgMjIyLjEwMDE1NyAyMDYuMjIyMjY3ICYjMTA7TCAyMjQuNjU2NDkyIDE3OC45NTQ3MDYgJiMxMDtMIDIyNy4yMTI4MjcgMTU5LjM0NzkwNCAmIzEwO0wgMjI5Ljc2OTE2MiAxNjEuMzM5NDI1ICYjMTA7TCAyMzIuMzI1NDk3IDEzOC45MDIwNDYgJiMxMDtMIDIzNC44ODE4MzIgMTA3LjU3Mzk1MSAmIzEwO0wgMjM3LjQzODE2OCAxMDAuOTMwMjEgJiMxMDtMIDIzOS45OTQ1MDMgNzYuNTg0MDEyICYjMTA7TCAyNDIuNTUwODM4IDcwLjg4NTIzMyAmIzEwO0wgMjQ1LjEwNzE3MyA1NC4xMDEwNjIgJiMxMDtMIDI0Ny42NjM1MDggNTkuNDQ1NzA0ICYjMTA7TCAyNTAuMjE5ODQzIDY1LjE2NDQ3NyAmIzEwO0wgMjUyLjc3NjE3OCA1Mi41NzUxNjcgJiMxMDtMIDI1NS4zMzI1MTMgNjcuMzYyNjUyICYjMTA7TCAyNTcuODg4ODQ4IDY3LjcxMjQ4OSAmIzEwO0wgMjYwLjQ0NTE4MyA3MS4zOTUwNjcgJiMxMDtMIDI2My4wMDE1MTggOTMuNTYwMzc1ICYjMTA7TCAyNjUuNTU3ODUzIDkyLjY1NjAzMiAmIzEwO0wgMjY4LjExNDE4OCAxMDAuOTg5MzQyICYjMTA7TCAyNzAuNjcwNTIzIDExOC42NzkzNzEgJiMxMDtMIDI3My4yMjY4NTggMTI1LjY4NDAwMSAmIzEwO0wgMjc1Ljc4MzE5MyAxMzAuNjU2Mjk5ICYjMTA7TCAyNzguMzM5NTI4IDE0MS43ODE4MjMgJiMxMDtMIDI4MC44OTU4NjMgMTMxLjA1OTIzNCAmIzEwO0wgMjgzLjQ1MjE5OCAxMjcuMjk2NzQ4ICYjMTA7TCAyODYuMDA4NTMzIDEzMy41Mjc5NzYgJiMxMDtMIDI4OC41NjQ4NjggMTE1LjUxNjc5ICYjMTA7TCAyOTEuMTIxMjAzIDExMC45MTc3OTYgJiMxMDtMIDI5My42Nzc1MzggMTA1LjQxNDgwOSAmIzEwO0wgMjk2LjIzMzg3MyA3OS45MjI0MjcgJiMxMDtMIDI5OC43OTAyMDggNzguNTU3MzczICYjMTA7TCAzMDEuMzQ2NTQzIDczLjMzNDc1NCAmIzEwO0wgMzAzLjkwMjg3OCA3OS41MjQ0NjYgJiMxMDtMIDMwNi40NTkyMTMgNzQuOTI5MTgxICYjMTA7TCAzMDkuMDE1NTQ4IDkxLjcyNzQwOSAmIzEwO0wgMzE0LjEyODIxOCAxNTcuOTQ0MTg4ICYjMTA7TCAzMTkuMjQwODg4IDIxNy40MzQ5NTggJiMxMDtMIDMyMS43OTcyMjMgMjIyLjgyNjI4ICYjMTA7TCAzMjQuMzUzNTU4IDIzNC42MDQ1MTMgJiMxMDtMIDMyNi45MDk4OTMgMjI2LjI2MzA4ICYjMTA7TCAzMjkuNDY2MjI4IDIxOS4wNTE4NiAmIzEwO0wgMzMyLjAyMjU2MyAxOTEuNjQzNTIzICYjMTA7TCAzMzQuNTc4ODk4IDE2Mi4wNjAzNSAmIzEwO0wgMzM3LjEzNTIzMyAxMjkuNzg4Njk1ICYjMTA7TCAzMzkuNjkxNTY4IDExNC42MDY5MTIgJiMxMDtMIDM0NC44MDQyMzggNzkuNTcyMjk1ICYjMTA7TCAzNDcuMzYwNTczIDgyLjE0MjMwMiAmIzEwO0wgMzQ5LjkxNjkwOCA5NS4xOTcwNzcgJiMxMDtMIDM1Mi40NzMyNDMgMTE0Ljg2NTk3OSAmIzEwO0wgMzU1LjAyOTU3OCAxNDMuNTMwNTUxICYjMTA7TCAzNTcuNTg1OTEzIDE3OC41MTE4ICYjMTA7TCAzNjAuMTQyMjQ4IDIwMy43NTc4NjQgJiMxMDtMIDM2Mi42OTg1ODMgMjExLjE5NTkyMyAmIzEwO0wgMzY1LjI1NDkxOCAyMTIuOTQ0NTMxICYjMTA7TCAzNjcuODExMjUzIDIyMC41NTU3NiAmIzEwO0wgMzcwLjM2NzU4OCAyMDQuNDk5ODMzICYjMTA7TCAzNzIuOTIzOTIzIDE5My40MTM4MTcgJiMxMDtMIDM3NS40ODAyNTggMTgzLjE1MjIxMyAmIzEwO0wgMzc4LjAzNjU5MyAxNjEuODYyNDUxICYjMTA7TCAzODAuNTkyOTI4IDEzMy44MTI0MTkgJiMxMDtMIDM4My4xNDkyNjMgMTEwLjAxMzQ1MSAmIzEwO0wgMzg1LjcwNTU5OCAxMDYuOTY0NDMgJiMxMDtMIDM4OC4yNjE5MzMgMTAwLjEwNzk0MiAmIzEwO0wgMzkwLjgxODI2OCA3Ny45NzUxNzQgJiMxMDtMIDM5My4zNzQ2MDMgODEuMzMyNDExICYjMTA7TCAzOTUuOTMwOTM4IDgyLjU4MTU3NyAmIzEwO0wgMzk4LjQ4NzI3MyA4NC4zNjA4OTcgJiMxMDtMIDM5OC40ODcyNzMgODQuMzYwODk3Ii8+JiN4YTsgICA8L2c+JiN4YTsgICA8ZyBpZD0icGF0Y2hfMyI+JiN4YTsgICAgPHBhdGggc3R5bGU9ImZpbGw6IG5vbmU7IHN0cm9rZTogIzAwMDAwMDsgc3Ryb2tlLXdpZHRoOiAwLjg7IHN0cm9rZS1saW5lam9pbjogbWl0ZXI7IHN0cm9rZS1saW5lY2FwOiBzcXVhcmUiIGQ9Ik0gNTcuNiAzMDcuNTg0ICYjMTA7TCA1Ny42IDQxLjQ3MiIvPiYjeGE7ICAgPC9nPiYjeGE7ICAgPGcgaWQ9InBhdGNoXzQiPiYjeGE7ICAgIDxwYXRoIHN0eWxlPSJmaWxsOiBub25lOyBzdHJva2U6ICMwMDAwMDA7IHN0cm9rZS13aWR0aDogMC44OyBzdHJva2UtbGluZWpvaW46IG1pdGVyOyBzdHJva2UtbGluZWNhcDogc3F1YXJlIiBkPSJNIDQxNC43MiAzMDcuNTg0ICYjMTA7TCA0MTQuNzIgNDEuNDcyIi8+JiN4YTsgICA8L2c+JiN4YTsgICA8ZyBpZD0icGF0Y2hfNSI+JiN4YTsgICAgPHBhdGggc3R5bGU9ImZpbGw6IG5vbmU7IHN0cm9rZTogIzAwMDAwMDsgc3Ryb2tlLXdpZHRoOiAwLjg7IHN0cm9rZS1saW5lam9pbjogbWl0ZXI7IHN0cm9rZS1saW5lY2FwOiBzcXVhcmUiIGQ9Ik0gNTcuNiAzMDcuNTg0ICYjMTA7TCA0MTQuNzIgMzA3LjU4NCIvPiYjeGE7ICAgPC9nPiYjeGE7ICAgPGcgaWQ9InBhdGNoXzYiPiYjeGE7ICAgIDxwYXRoIHN0eWxlPSJmaWxsOiBub25lOyBzdHJva2U6ICMwMDAwMDA7IHN0cm9rZS13aWR0aDogMC44OyBzdHJva2UtbGluZWpvaW46IG1pdGVyOyBzdHJva2UtbGluZWNhcDogc3F1YXJlIiBkPSJNIDU3LjYgNDEuNDcyICYjMTA7TCA0MTQuNzIgNDEuNDcyIi8+JiN4YTsgICA8L2c+JiN4YTsgICA8ZyBpZD0ibGVnZW5kXzEiPiYjeGE7ICAgIDxnIGlkPSJwYXRjaF83Ij4mI3hhOyAgICAgPHBhdGggc3R5bGU9ImZpbGw6ICNmZmZmZmY7IG9wYWNpdHk6IDAuODsgc3Ryb2tlOiAjY2NjY2NjOyBzdHJva2UtbGluZWpvaW46IG1pdGVyIiBkPSJNIDc4LjM2NzgxMiAzMDIuNTg0ICYjMTA7TCAzOTMuOTUyMTg4IDMwMi41ODQgJiMxMDtRIDM5NS45NTIxODggMzAyLjU4NCAzOTUuOTUyMTg4IDMwMC41ODQgJiMxMDtMIDM5NS45NTIxODggMjg2LjkwNTg3NSAmIzEwO1EgMzk1Ljk1MjE4OCAyODQuOTA1ODc1IDM5My45NTIxODggMjg0LjkwNTg3NSAmIzEwO0wgNzguMzY3ODEyIDI4NC45MDU4NzUgJiMxMDtRIDc2LjM2NzgxMiAyODQuOTA1ODc1IDc2LjM2NzgxMiAyODYuOTA1ODc1ICYjMTA7TCA3Ni4zNjc4MTIgMzAwLjU4NCAmIzEwO1EgNzYuMzY3ODEyIDMwMi41ODQgNzguMzY3ODEyIDMwMi41ODQgJiMxMDt6Ii8+JiN4YTsgICAgPC9nPiYjeGE7ICAgIDxnIGlkPSJsaW5lMmRfNSI+JiN4YTsgICAgIDxwYXRoIHN0eWxlPSJmaWxsOiBub25lOyBzdHJva2U6ICNmZjAwMDA7IHN0cm9rZS13aWR0aDogMS41OyBzdHJva2UtbGluZWNhcDogc3F1YXJlIiBkPSJNIDgwLjM2NzgxMiAyOTMuMDA0MzEyICYjMTA7TCA5MC4zNjc4MTIgMjkzLjAwNDMxMiAmIzEwO0wgMTAwLjM2NzgxMiAyOTMuMDA0MzEyIi8+JiN4YTsgICAgPC9nPiYjeGE7ICAgIDxnIGlkPSJ0ZXh0XzMiPiYjeGE7ICAgICAmI3hhOyAgICAgPGcgdHJhbnNmb3JtPSJ0cmFuc2xhdGUoMTA4LjM2NzgxMiAyOTYuNTA0MzEyKSBzY2FsZSgwLjEgLTAuMSkiPiYjeGE7ICAgICAgPGRlZnM+JiN4YTsgICAgICAgPHBhdGggdHJhbnNmb3JtPSJzY2FsZSgwLjAxNTYyNSkiIGQ9Ik0gNjI4IDQ2NjYgJiMxMDtMIDEyNTkgNDY2NiAmIzEwO0wgMTI1OSAwICYjMTA7TCA2MjggMCAmIzEwO0wgNjI4IDQ2NjYgJiMxMDt6IiBpZD0iRGVqYVZ1U2Fucy00OSIvPiYjeGE7ICAgICAgPC9kZWZzPiYjeGE7ICAgICAgPHVzZSB4bGluazpocmVmPSIjRGVqYVZ1U2Fucy00OSIvPiYjeGE7ICAgICA8L2c+JiN4YTsgICAgPC9nPiYjeGE7ICAgIDxnIGlkPSJsaW5lMmRfNiI+JiN4YTsgICAgIDxwYXRoIHN0eWxlPSJmaWxsOiBub25lOyBzdHJva2U6ICMwMDAwZmY7IHN0cm9rZS13aWR0aDogMS41OyBzdHJva2UtbGluZWNhcDogc3F1YXJlIiBkPSJNIDEzMS4zMTc4MTMgMjkzLjAwNDMxMiAmIzEwO0wgMTQxLjMxNzgxMyAyOTMuMDA0MzEyICYjMTA7TCAxNTEuMzE3ODEzIDI5My4wMDQzMTIiLz4mI3hhOyAgICA8L2c+JiN4YTsgICAgPGcgaWQ9InRleHRfNCI+JiN4YTsgICAgICYjeGE7ICAgICA8ZyB0cmFuc2Zvcm09InRyYW5zbGF0ZSgxNTkuMzE3ODEzIDI5Ni41MDQzMTIpIHNjYWxlKDAuMSAtMC4xKSI+JiN4YTsgICAgICA8ZGVmcz4mI3hhOyAgICAgICA8cGF0aCB0cmFuc2Zvcm09InNjYWxlKDAuMDE1NjI1KSIgZD0iTSAyNTIyIDQyMzggJiMxMDtRIDE4MzQgNDIzOCAxNDI5IDM3MjUgJiMxMDtRIDEwMjUgMzIxMyAxMDI1IDIzMjggJiMxMDtRIDEwMjUgMTQ0NyAxNDI5IDkzNCAmIzEwO1EgMTgzNCA0MjIgMjUyMiA0MjIgJiMxMDtRIDMyMDkgNDIyIDM2MTEgOTM0ICYjMTA7USA0MDEzIDE0NDcgNDAxMyAyMzI4ICYjMTA7USA0MDEzIDMyMTMgMzYxMSAzNzI1ICYjMTA7USAzMjA5IDQyMzggMjUyMiA0MjM4ICYjMTA7eiYjMTA7TSAzNDA2IDg0ICYjMTA7TCA0MjM4IC04MjUgJiMxMDtMIDM0NzUgLTgyNSAmIzEwO0wgMjc4NCAtNzggJiMxMDtRIDI2ODEgLTg0IDI2MjYgLTg3ICYjMTA7USAyNTcyIC05MSAyNTIyIC05MSAmIzEwO1EgMTUzOCAtOTEgOTQ4IDU2NyAmIzEwO1EgMzU5IDEyMjUgMzU5IDIzMjggJiMxMDtRIDM1OSAzNDM0IDk0OCA0MDkyICYjMTA7USAxNTM4IDQ3NTAgMjUyMiA0NzUwICYjMTA7USAzNTAzIDQ3NTAgNDA5MCA0MDkyICYjMTA7USA0Njc4IDM0MzQgNDY3OCAyMzI4ICYjMTA7USA0Njc4IDE1MTYgNDM1MSA5MzcgJiMxMDtRIDQwMjUgMzU5IDM0MDYgODQgJiMxMDt6IiBpZD0iRGVqYVZ1U2Fucy01MSIvPiYjeGE7ICAgICAgPC9kZWZzPiYjeGE7ICAgICAgPHVzZSB4bGluazpocmVmPSIjRGVqYVZ1U2Fucy01MSIvPiYjeGE7ICAgICA8L2c+JiN4YTsgICAgPC9nPiYjeGE7ICAgIDxnIGlkPSJsaW5lMmRfNyI+JiN4YTsgICAgIDxwYXRoIHN0eWxlPSJmaWxsOiBub25lOyBzdHJva2UtZGFzaGFycmF5OiA1LjU1LDIuNDsgc3Ryb2tlLWRhc2hvZmZzZXQ6IDA7IHN0cm9rZTogI2ZmMDAwMDsgc3Ryb2tlLXdpZHRoOiAxLjUiIGQ9Ik0gMTg3LjE4OTY4NyAyOTMuMDA0MzEyICYjMTA7TCAxOTcuMTg5Njg3IDI5My4wMDQzMTIgJiMxMDtMIDIwNy4xODk2ODcgMjkzLjAwNDMxMiIvPiYjeGE7ICAgIDwvZz4mI3hhOyAgICA8ZyBpZD0idGV4dF81Ij4mI3hhOyAgICAgJiN4YTsgICAgIDxnIHRyYW5zZm9ybT0idHJhbnNsYXRlKDIxNS4xODk2ODcgMjk2LjUwNDMxMikgc2NhbGUoMC4xIC0wLjEpIj4mI3hhOyAgICAgIDxkZWZzPiYjeGE7ICAgICAgIDxwYXRoIHRyYW5zZm9ybT0ic2NhbGUoMC4wMTU2MjUpIiBkPSJNIDE5MSAzNTAwICYjMTA7TCA4MDAgMzUwMCAmIzEwO0wgMTg5NCA1NjMgJiMxMDtMIDI5ODggMzUwMCAmIzEwO0wgMzU5NyAzNTAwICYjMTA7TCAyMjg0IDAgJiMxMDtMIDE1MDMgMCAmIzEwO0wgMTkxIDM1MDAgJiMxMDt6IiBpZD0iRGVqYVZ1U2Fucy03NiIvPiYjeGE7ICAgICAgIDxwYXRoIHRyYW5zZm9ybT0ic2NhbGUoMC4wMTU2MjUpIiBkPSJNIDYwMyA0ODYzICYjMTA7TCAxMTc4IDQ4NjMgJiMxMDtMIDExNzggMCAmIzEwO0wgNjAzIDAgJiMxMDtMIDYwMyA0ODYzICYjMTA7eiIgaWQ9IkRlamFWdVNhbnMtNmMiLz4mI3hhOyAgICAgICA8cGF0aCB0cmFuc2Zvcm09InNjYWxlKDAuMDE1NjI1KSIgaWQ9IkRlamFWdVNhbnMtMjAiLz4mI3hhOyAgICAgIDwvZGVmcz4mI3hhOyAgICAgIDx1c2UgeGxpbms6aHJlZj0iI0RlamFWdVNhbnMtNjEiLz4mI3hhOyAgICAgIDx1c2UgeD0iNjEuMjc5Mjk3IiB4bGluazpocmVmPSIjRGVqYVZ1U2Fucy02NCIvPiYjeGE7ICAgICAgPHVzZSB4PSIxMjQuNzU1ODU5IiB4bGluazpocmVmPSIjRGVqYVZ1U2Fucy03NiIvPiYjeGE7ICAgICAgPHVzZSB4PSIxODMuOTM1NTQ3IiB4bGluazpocmVmPSIjRGVqYVZ1U2Fucy02NSIvPiYjeGE7ICAgICAgPHVzZSB4PSIyNDUuNDU4OTg0IiB4bGluazpocmVmPSIjRGVqYVZ1U2Fucy03MiIvPiYjeGE7ICAgICAgPHVzZSB4PSIyODYuNTcyMjY2IiB4bGluazpocmVmPSIjRGVqYVZ1U2Fucy03MyIvPiYjeGE7ICAgICAgPHVzZSB4PSIzMzguNjcxODc1IiB4bGluazpocmVmPSIjRGVqYVZ1U2Fucy02MSIvPiYjeGE7ICAgICAgPHVzZSB4PSIzOTkuOTUxMTcyIiB4bGluazpocmVmPSIjRGVqYVZ1U2Fucy03MiIvPiYjeGE7ICAgICAgPHVzZSB4PSI0NDEuMDY0NDUzIiB4bGluazpocmVmPSIjRGVqYVZ1U2Fucy02OSIvPiYjeGE7ICAgICAgPHVzZSB4PSI0NjguODQ3NjU2IiB4bGluazpocmVmPSIjRGVqYVZ1U2Fucy02MSIvPiYjeGE7ICAgICAgPHVzZSB4PSI1MzAuMTI2OTUzIiB4bGluazpocmVmPSIjRGVqYVZ1U2Fucy02YyIvPiYjeGE7ICAgICAgPHVzZSB4PSI1NTcuOTEwMTU2IiB4bGluazpocmVmPSIjRGVqYVZ1U2Fucy0yMCIvPiYjeGE7ICAgICAgPHVzZSB4PSI1ODkuNjk3MjY2IiB4bGluazpocmVmPSIjRGVqYVZ1U2Fucy00OSIvPiYjeGE7ICAgICA8L2c+JiN4YTsgICAgPC9nPiYjeGE7ICAgIDxnIGlkPSJsaW5lMmRfOCI+JiN4YTsgICAgIDxwYXRoIHN0eWxlPSJmaWxsOiBub25lOyBzdHJva2UtZGFzaGFycmF5OiA1LjU1LDIuNDsgc3Ryb2tlLWRhc2hvZmZzZXQ6IDA7IHN0cm9rZTogIzAwMDBmZjsgc3Ryb2tlLXdpZHRoOiAxLjUiIGQ9Ik0gMjk3LjExIDI5My4wMDQzMTIgJiMxMDtMIDMwNy4xMSAyOTMuMDA0MzEyICYjMTA7TCAzMTcuMTEgMjkzLjAwNDMxMiIvPiYjeGE7ICAgIDwvZz4mI3hhOyAgICA8ZyBpZD0idGV4dF82Ij4mI3hhOyAgICAgJiN4YTsgICAgIDxnIHRyYW5zZm9ybT0idHJhbnNsYXRlKDMyNS4xMSAyOTYuNTA0MzEyKSBzY2FsZSgwLjEgLTAuMSkiPiYjeGE7ICAgICAgPHVzZSB4bGluazpocmVmPSIjRGVqYVZ1U2Fucy02MSIvPiYjeGE7ICAgICAgPHVzZSB4PSI2MS4yNzkyOTciIHhsaW5rOmhyZWY9IiNEZWphVnVTYW5zLTY0Ii8+JiN4YTsgICAgICA8dXNlIHg9IjEyNC43NTU4NTkiIHhsaW5rOmhyZWY9IiNEZWphVnVTYW5zLTc2Ii8+JiN4YTsgICAgICA8dXNlIHg9IjE4My45MzU1NDciIHhsaW5rOmhyZWY9IiNEZWphVnVTYW5zLTY1Ii8+JiN4YTsgICAgICA8dXNlIHg9IjI0NS40NTg5ODQiIHhsaW5rOmhyZWY9IiNEZWphVnVTYW5zLTcyIi8+JiN4YTsgICAgICA8dXNlIHg9IjI4Ni41NzIyNjYiIHhsaW5rOmhyZWY9IiNEZWphVnVTYW5zLTczIi8+JiN4YTsgICAgICA8dXNlIHg9IjMzOC42NzE4NzUiIHhsaW5rOmhyZWY9IiNEZWphVnVTYW5zLTYxIi8+JiN4YTsgICAgICA8dXNlIHg9IjM5OS45NTExNzIiIHhsaW5rOmhyZWY9IiNEZWphVnVTYW5zLTcyIi8+JiN4YTsgICAgICA8dXNlIHg9IjQ0MS4wNjQ0NTMiIHhsaW5rOmhyZWY9IiNEZWphVnVTYW5zLTY5Ii8+JiN4YTsgICAgICA8dXNlIHg9IjQ2OC44NDc2NTYiIHhsaW5rOmhyZWY9IiNEZWphVnVTYW5zLTYxIi8+JiN4YTsgICAgICA8dXNlIHg9IjUzMC4xMjY5NTMiIHhsaW5rOmhyZWY9IiNEZWphVnVTYW5zLTZjIi8+JiN4YTsgICAgICA8dXNlIHg9IjU1Ny45MTAxNTYiIHhsaW5rOmhyZWY9IiNEZWphVnVTYW5zLTIwIi8+JiN4YTsgICAgICA8dXNlIHg9IjU4OS42OTcyNjYiIHhsaW5rOmhyZWY9IiNEZWphVnVTYW5zLTUxIi8+JiN4YTsgICAgIDwvZz4mI3hhOyAgICA8L2c+JiN4YTsgICA8L2c+JiN4YTsgIDwvZz4mI3hhOyA8L2c+JiN4YTsgPGRlZnM+JiN4YTsgIDxjbGlwUGF0aCBpZD0icGJjODdlNDc3M2QiPiYjeGE7ICAgPHJlY3QgaGVpZ2h0PSIyNjYuMTEyIiB3aWR0aD0iMzU3LjEyIiB5PSI0MS40NzIiIHg9IjU3LjYiLz4mI3hhOyAgPC9jbGlwUGF0aD4mI3hhOyA8L2RlZnM+JiN4YTs8L3N2Zz4=;fontFamily=Times New Roman;" vertex="1" parent="1">
          <mxGeometry x="140" y="199.94" width="120" height="90.06" as="geometry" />
        </mxCell>
      </root>
    </mxGraphModel>
  </diagram>
</mxfile>
